<?xml version="1.0" encoding="UTF-8"?>
<svg version="1.1" xmlns="http://www.w3.org/2000/svg" width="1024" height="1024">
<path d="M0 0 C337.92 0 675.84 0 1024 0 C1024 337.92 1024 675.84 1024 1024 C686.08 1024 348.16 1024 0 1024 C0 686.08 0 348.16 0 0 Z " fill="#FEFEFE" transform="translate(0,0)"/>
<path d="M0 0 C5.52517018 3.75785985 9.20569396 7.94567024 12 14 C12 14.99 12 15.98 12 17 C13.15628906 17.02578125 14.31257813 17.0515625 15.50390625 17.078125 C72.94003512 18.8250303 130.3643571 35.81226394 177 70 C177.57830566 70.4213623 178.15661133 70.84272461 178.75244141 71.27685547 C186.98728851 77.31794497 194.64322051 83.91942091 202 91 C202.62841797 91.60118652 203.25683594 92.20237305 203.90429688 92.82177734 C212.56804875 101.15214671 220.64133668 109.63537322 227.76611328 119.32617188 C228.95944103 120.94497976 230.18047253 122.5432519 231.40234375 124.140625 C248.98125324 147.47678806 267.12358657 178.52011517 271 208 C271.6290625 208.02578125 272.258125 208.0515625 272.90625 208.078125 C279.1311166 208.49061616 283.70347213 209.70306018 289 213 C289.86625 213.53625 290.7325 214.0725 291.625 214.625 C297.84268655 220.84268655 301.13682079 227.96326903 301.25 236.6875 C301.1089606 247.26545536 298.50242074 251.95978706 291.44921875 259.80078125 C288.45109639 262.49287518 285.1686998 265 281 265 C281.01571045 265.91998779 281.0314209 266.83997559 281.04760742 267.7878418 C281.30869459 285.43711382 281.45417508 302.61353215 278 320 C277.83371094 320.8962207 277.66742187 321.79244141 277.49609375 322.71582031 C269.89519377 363.40878669 252.23621213 401.22472146 224.06640625 431.74609375 C222.23259442 433.7463006 220.48962633 435.79343238 218.75 437.875 C189.39327467 471.32957486 144.57597328 493.99932455 101 501 C99.95497314 501.17587646 98.90994629 501.35175293 97.83325195 501.53295898 C87.87157712 503.05278849 78.08426354 503.34018543 68.02270508 503.31567383 C65.33307898 503.3125241 62.64456862 503.33603665 59.95507812 503.36132812 C28.27688654 503.47737142 -2.20226354 495.0676454 -30 480 C-31.04542969 479.43539063 -32.09085938 478.87078125 -33.16796875 478.2890625 C-45.92040602 471.11265791 -57.12879522 462.49862694 -67.61914062 452.33398438 C-68.80031666 451.19290484 -69.99994212 450.07097576 -71.203125 448.953125 C-95.26930163 426.0609082 -109.50627242 394.08665393 -116 362 C-116.22816406 360.88109375 -116.45632813 359.7621875 -116.69140625 358.609375 C-123.38339927 318.36382259 -113.92327983 275.65853727 -91 242 C-87.62211761 237.40307848 -83.87731969 233.17696228 -80 229 C-79.16082031 228.06800781 -78.32164062 227.13601563 -77.45703125 226.17578125 C-55.79508331 203.20297413 -26.24522739 191.44041167 4 185 C4.77972168 184.82041748 5.55944336 184.64083496 6.36279297 184.45581055 C36.1345935 179.31010127 68.3038511 186.97493853 93.17822266 203.70507812 C115.84396834 219.81592175 132.23307341 242.96436437 139 270 C139.17660156 270.69915527 139.35320312 271.39831055 139.53515625 272.11865234 C143.53032947 289.60110229 142.5884127 309.95212953 137 327 C136.68651611 327.96800537 136.68651611 327.96800537 136.36669922 328.95556641 C131.13042734 344.53102382 122.62801609 357.5079841 111 369 C109.92492187 370.09054687 109.92492187 370.09054687 108.828125 371.203125 C91.09945048 388.1320097 66.06896248 395.73544223 41.93725586 395.40209961 C27.0339191 394.88473523 12.2436313 388.73670831 1.91015625 377.78515625 C-8.57812523 365.42187473 -12.10586162 351.90090582 -11.19970703 335.95410156 C-9.95372901 323.76240461 -2.81643828 312.20273035 6 304 C18.16457174 294.72833233 29.04445123 292.81097388 44 294 C52.7939367 295.33899448 59.7827395 300.98368502 65.3125 307.75 C71.7646166 317.14960161 73.14461976 326.75862906 72 338 C70.17828676 347.42223866 64.74595057 354.7847798 57.03515625 360.44140625 C55.25 361.5 55.25 361.5 52 363 C50.88431641 363.52787109 50.88431641 363.52787109 49.74609375 364.06640625 C42.52374956 366.5217978 33.34992538 366.13108255 26.4375 362.9375 C20.19481871 359.24581472 15.71209855 354.25545152 13.4765625 347.29296875 C11.82060646 339.32537697 12.34146675 332.3227491 16.375 325.1953125 C20.09999394 320.16298896 25.08011028 316.92905226 31 315 C33.89453125 314.8046875 33.89453125 314.8046875 36.8125 314.875 C37.78832031 314.89304687 38.76414062 314.91109375 39.76953125 314.9296875 C40.87361328 314.96449219 40.87361328 314.96449219 42 315 C36.22676209 313.07558736 30.11585286 313.39034748 24.3125 315.0625 C16.37361285 319.70600003 11.22154633 324.99012071 8.421875 333.82421875 C6.6743627 342.83685163 7.26925983 352.05719477 12 360 C17.46903448 368.08523126 24.70203703 372.53712637 33.88671875 375.63671875 C43.92740211 377.36275119 53.86205339 376.54059459 63 372 C63.85078125 371.5875 64.7015625 371.175 65.578125 370.75 C78.1484409 363.96357178 85.01435706 352.98607091 89.03125 339.55078125 C92.79699807 323.98220243 92.02240456 308.12643788 83.5390625 294.15234375 C73.68651675 280.37378358 59.25478606 270.01806921 42.515625 266.4375 C19.11867749 263.52587987 -1.85688446 269.12681946 -20.77734375 283.24609375 C-21.51082031 283.82488281 -22.24429687 284.40367187 -23 285 C-24.11568359 285.85271484 -24.11568359 285.85271484 -25.25390625 286.72265625 C-40.87669442 299.51975751 -49.71590161 319.20448066 -52 339 C-53.71855452 368.26848685 -46.60256533 393.93155325 -27.19946289 416.46826172 C-7.83669795 438.16808355 21.17835778 447.576929 49.54296875 449.203125 C83.9987266 449.64628587 118.09024866 438.38802267 143.0703125 414.046875 C145.74647639 411.39611773 148.38172671 408.70787199 151 406 C149.5183074 402.17949217 147.80409242 398.58893084 145.90234375 394.96484375 C142.82465026 388.26319949 143.09015845 380.72148428 145.5625 373.875 C149.71881278 364.6500131 155.73465218 359.7741714 165 356 C167.96349281 355.01216906 169.9712663 354.86589475 173.0625 354.875 C173.94035156 354.87242187 174.81820313 354.86984375 175.72265625 354.8671875 C178 355 178 355 180 356 C180.12375 354.72382813 180.2475 353.44765625 180.375 352.1328125 C180.94816248 346.97636839 181.9342118 341.94907859 183 336.875 C190.61622984 300.28398273 185.27407482 259.97065645 165 228 C164.34257813 226.94425781 163.68515625 225.88851562 163.0078125 224.80078125 C152.87692675 209.09199537 140.63939273 195.54800264 126 184 C125.43023438 184.28617188 124.86046875 184.57234375 124.2734375 184.8671875 C123.52320313 185.24101562 122.77296875 185.61484375 122 186 C120.96746094 186.52980469 120.96746094 186.52980469 119.9140625 187.0703125 C112.05345741 190.692093 103.83127932 191.47307355 95.38671875 189.33984375 C86.51031296 185.79847978 80.84079889 179.81516774 76.91015625 171.234375 C75.40834153 167.54751655 74.88608147 164.77172689 74.9375 160.8125 C74.94652344 159.91144531 74.95554687 159.01039063 74.96484375 158.08203125 C74.98224609 157.05142578 74.98224609 157.05142578 75 156 C74.195625 155.85304688 74.195625 155.85304688 73.375 155.703125 C68.07921241 154.69274447 62.89726374 153.45141556 57.6875 152.0625 C6.02290832 138.98564636 -50.41037052 148.62341896 -96.0703125 175.56640625 C-116.97985442 188.31292188 -136.097647 204.51447051 -151 224 C-151.4940332 224.64469238 -151.98806641 225.28938477 -152.49707031 225.95361328 C-160.72581807 236.78921631 -167.7741657 247.90809509 -174 260 C-174.34337402 260.64630371 -174.68674805 261.29260742 -175.04052734 261.95849609 C-191.83536835 293.74025805 -198.4225679 329.8914127 -200.125 365.4375 C-200.21167684 367.15172125 -200.29891335 368.86591431 -200.38671875 370.58007812 C-200.59757415 374.71975659 -200.80093972 378.85973829 -201 383 C-200.08436279 382.99129883 -199.16872559 382.98259766 -198.2253418 382.97363281 C-181.58080481 382.88171636 -164.81745946 383.14295545 -152.22265625 395.3984375 C-139.71769451 410.03517654 -138.90779528 430.54988525 -138.7890625 448.83203125 C-138.76099728 451.28451192 -138.73233284 453.7369858 -138.703125 456.18945312 C-138.66195996 460.00040516 -138.62500879 463.81122972 -138.59863281 467.62231445 C-138.54808931 499.22474859 -138.54808931 499.22474859 -123.1875 526.1328125 C-96.37897259 549.01580554 -60.24715451 546.63910506 -27.16369629 546.73822021 C-21.94692169 546.75803595 -16.73032493 546.799975 -11.51367188 546.83984375 C-1.34247357 546.91442231 8.82859521 546.9630929 19 547 C19 539.41 19 531.82 19 524 C41.44 524 63.88 524 87 524 C87 546.11 87 568.22 87 591 C64.56 591 42.12 591 19 591 C19 582.75 19 574.5 19 566 C16.54030762 566.01571045 14.08061523 566.0314209 11.54638672 566.04760742 C3.32829707 566.09779738 -4.8898002 566.13064342 -13.10800362 566.15543652 C-18.08022436 566.17095021 -23.05228527 566.19191953 -28.02441406 566.22631836 C-67.22271049 566.49022203 -106.61700884 566.51776941 -137.1875 538.3125 C-152.31517462 522.38049094 -157.26824719 501.29010772 -157.30859375 479.95703125 C-157.33375902 477.47590916 -157.35915697 474.99478943 -157.38476562 472.51367188 C-157.41338696 468.66789393 -157.43745268 464.82215674 -157.45629883 460.97631836 C-156.66361817 432.55398383 -156.66361817 432.55398383 -167.3125 407.0625 C-173.15307642 402.58019717 -179.79261777 402.67858168 -186.87109375 402.5859375 C-187.793423 402.56657135 -188.71575226 402.5472052 -189.66603088 402.5272522 C-192.58976211 402.4678388 -195.51353353 402.42122491 -198.4375 402.375 C-200.4290529 402.33678498 -202.4205899 402.29773123 -204.41210938 402.2578125 C-209.27460923 402.16216896 -214.13718638 402.07799779 -219 402 C-225.12517602 352.9195317 -215.80403761 300.22762165 -194 256 C-193.62262695 255.2275293 -193.24525391 254.45505859 -192.85644531 253.65917969 C-187.14843138 242.08888117 -180.64902628 231.38460585 -173 221 C-172.58250488 220.43087891 -172.16500977 219.86175781 -171.73486328 219.27539062 C-159.82731913 203.15934912 -146.80700383 188.39044213 -131 176 C-129.66388672 174.93845703 -129.66388672 174.93845703 -128.30078125 173.85546875 C-114.60381419 163.25321391 -99.77459447 154.15354966 -84 147 C-83.34918457 146.70287109 -82.69836914 146.40574219 -82.02783203 146.09960938 C-63.55878113 137.790573 -43.9691354 132.23949384 -24 129 C-23.30261719 128.88285645 -22.60523438 128.76571289 -21.88671875 128.64501953 C-1.26469373 125.32794906 21.42309925 125.58483589 42 129 C43.3514004 129.19772566 44.70296821 129.39431001 46.0546875 129.58984375 C56.93064692 131.25319588 67.3679783 134.20145571 77.88793945 137.38330078 C78.58491943 137.58681152 79.28189941 137.79032227 80 138 C80.69947754 138.21624023 81.39895508 138.43248047 82.11962891 138.65527344 C85.08074956 139.19813274 86.61086358 137.72984194 89.0625 136.125 C96.49474345 131.31918844 103.37242489 131.37380503 112 132 C121.49875588 134.2757436 127.61177968 139.65634886 132.7421875 147.80859375 C135.96435467 153.42236947 136.54740821 158.63478828 136 165 C135.67 165.66 135.34 166.32 135 167 C135.56203125 167.24363281 136.1240625 167.48726562 136.703125 167.73828125 C139.44019785 169.24180936 141.45795941 171.06699748 143.75 173.1875 C146.79974011 175.99611864 149.8691325 178.73199243 153.0625 181.375 C158.02576097 185.69912877 161.93617364 190.84867082 166 196 C166.6703125 196.804375 167.340625 197.60875 168.03125 198.4375 C192.99225893 228.54919331 206.52482929 266.71980474 206.3125 305.75 C206.30976578 306.80148224 206.30976578 306.80148224 206.30697632 307.87420654 C206.25910706 318.84297116 205.53199167 329.3065475 203 340 C202.78585449 340.91023926 202.57170898 341.82047852 202.35107422 342.75830078 C202.12049316 343.73653809 201.88991211 344.71477539 201.65234375 345.72265625 C201.42119873 346.71249512 201.19005371 347.70233398 200.9519043 348.72216797 C200.49662142 350.64559954 200.02630319 352.56555792 199.53833008 354.48095703 C197.86803517 361.32960687 197.52158797 366.82908807 201.0625 373.1875 C204.23634019 379.98693136 203.91486848 387.44390026 202.0625 394.625 C199.32459588 401.68185146 193.58034393 408.09710277 186.8125 411.5 C182.90308538 413.01994754 179.16153196 413.27634319 175 413.625 C167.99346565 414.47541717 165.31886303 416.84277167 161.05078125 422.2890625 C160.37402344 423.18367188 159.69726562 424.07828125 159 425 C136.23645032 450.62550467 99.79835277 466.03406728 66 469 C27.31461904 470.89138304 -7.23002097 460.61052377 -36.44921875 434.83984375 C-50.59352749 421.53930853 -60.14924849 403.97801324 -66.375 385.75 C-66.73331909 384.70610107 -66.73331909 384.70610107 -67.09887695 383.64111328 C-70.67660487 372.53371188 -71.39141028 361.4231266 -71.375 349.8125 C-71.37412384 349.13057587 -71.37324768 348.44865173 -71.37234497 347.74606323 C-71.25434402 319.86068388 -60.48327039 295.09646871 -41 275 C-29.88131908 264.07570162 -16.72320708 256.1457975 -2 251 C-0.88109375 250.60683594 0.2378125 250.21367187 1.390625 249.80859375 C24.37395636 242.90878611 49.84040794 246.05538342 71 257 C86.53316718 266.15580442 98.61172454 277.80802339 105 295 C105.391875 295.96421875 105.78375 296.9284375 106.1875 297.921875 C111.50508538 313.06222226 110.00285691 330.50194104 107 346 C120.18638644 322.72659146 125.99292785 298.47684641 119 272 C114.49028788 256.29116944 106.36624587 243.71502959 95 232 C94.38898438 231.31550781 93.77796875 230.63101563 93.1484375 229.92578125 C78.76338203 214.34707224 55.61852101 205.11301213 34.734375 203.79370117 C31.23682527 203.69668628 27.74884251 203.67084111 24.25 203.6875 C23.01008301 203.69313965 21.77016602 203.6987793 20.49267578 203.70458984 C11.59813974 203.82252973 3.56848906 204.47190976 -5 207 C-5.66515625 207.18272461 -6.3303125 207.36544922 -7.015625 207.55371094 C-24.78848834 212.49151832 -41.93914599 220.99732897 -56 233 C-56.49790039 233.41717285 -56.99580078 233.8343457 -57.50878906 234.26416016 C-82.11832293 255.03374487 -94.42176245 285.5436141 -98 317 C-100.59999231 357.06698246 -90.99332394 396.61771083 -64.171875 427.28125 C-61.51217031 430.25124601 -58.76689045 433.12983525 -56 436 C-55.40832031 436.64324219 -54.81664062 437.28648437 -54.20703125 437.94921875 C-28.66073347 465.00937122 9.32639694 477.50964959 45 483 C45.68795654 483.10747559 46.37591309 483.21495117 47.0847168 483.32568359 C86.88730849 488.96619843 132.4095133 477.48351306 166 456 C166.99435059 455.36408936 166.99435059 455.36408936 168.00878906 454.71533203 C176.06158611 449.49493755 183.65550501 443.89569096 190.84057617 437.52783203 C192.91988061 435.69252935 194.7938959 434.10059843 197.296875 432.87890625 C199.367348 432.0613323 199.367348 432.0613323 200 429 C202.12634606 426.74857476 204.35035832 424.62127479 206.58789062 422.48144531 C210.91405617 418.25757088 214.7243275 413.81557856 218.375 409 C218.93662842 408.26015869 219.49825684 407.52031738 220.0769043 406.75805664 C250.95853327 365.44278884 261.37847983 315.68604167 262 265 C261.06430176 264.70883301 260.12860352 264.41766602 259.16455078 264.11767578 C252.48245193 261.75765043 246.65658771 255.97238554 243.4375 249.6875 C240.255797 241.52574012 239.87070064 233.53937278 242.78515625 225.1875 C244.27052904 222.51287375 246.15870909 220.96650776 248.4375 218.9375 C251.25180886 215.93142424 252.01969211 214.75001252 251.91015625 210.578125 C250.89489687 206.23821796 249.55428835 202.17056874 248 198 C247.73590332 197.2481543 247.47180664 196.49630859 247.19970703 195.72167969 C234.60092739 160.06136229 212.27270937 124.40246876 183 100 C182.06800781 99.18015625 181.13601563 98.3603125 180.17578125 97.515625 C148.62855789 69.88761952 109.60684809 52.38140715 69 43 C68.18901855 42.80954102 67.37803711 42.61908203 66.54248047 42.42285156 C48.31844203 38.25067468 29.57087705 36.84125058 11 35 C10.86207031 35.77794922 10.72414063 36.55589844 10.58203125 37.35742188 C9.37092174 42.8561842 5.24405939 47.38598848 0.74609375 50.62109375 C-8.44500384 55.8620411 -18.15612558 57.94639974 -28.62890625 55.34765625 C-35.65810037 52.49930455 -41.79286815 47.29779246 -46 41 C-46 40.34 -46 39.68 -46 39 C-66.41138547 42.88578025 -86.29100314 47.30018497 -106 54 C-106.82886719 54.27247559 -107.65773438 54.54495117 -108.51171875 54.82568359 C-159.5044133 71.65116566 -209.37519066 107.15998617 -242 150 C-243.18916016 151.49853516 -243.18916016 151.49853516 -244.40234375 153.02734375 C-278.3987143 196.02527316 -299.22970698 248.14450038 -308 302 C-308.15162598 302.91394531 -308.30325195 303.82789063 -308.45947266 304.76953125 C-309.44788338 310.8308962 -310.28060286 316.9010603 -311 323 C-311.10441406 323.87108398 -311.20882813 324.74216797 -311.31640625 325.63964844 C-313.53727257 345.04411648 -313.20519791 364.50304146 -313 384 C-312.25540527 383.98952637 -311.51081055 383.97905273 -310.74365234 383.96826172 C-261.5815999 383.36770472 -261.5815999 383.36770472 -242.8125 401.4375 C-225.57235899 418.97246202 -220.52953151 445.99547826 -220.71141052 469.73855591 C-220.73337604 471.36997494 -220.75535409 473.0013938 -220.77734375 474.6328125 C-220.78806639 476.36619138 -220.79710851 478.09958136 -220.80458069 479.83297729 C-220.82709829 484.3481259 -220.86602513 488.86295013 -220.9105835 493.37792969 C-220.98141207 500.60662005 -221.03651248 507.83529145 -221.07293892 515.06423569 C-221.08933901 517.55612105 -221.11889573 520.04759386 -221.14964294 522.53933716 C-221.25892429 535.31020449 -220.6368069 547.97445827 -216.3125 560.125 C-216.04977295 560.87797363 -215.7870459 561.63094727 -215.51635742 562.40673828 C-210.93627101 575.09607341 -204.50131642 584.61230171 -195 594 C-194.41605469 594.59425781 -193.83210937 595.18851563 -193.23046875 595.80078125 C-161.56599296 625.54133953 -106.10236813 624.61715972 -66 626 C-66 617.42 -66 608.84 -66 600 C-43.89 600 -21.78 600 1 600 C1 622.77 1 645.54 1 669 C-21.11 669 -43.22 669 -66 669 C-66 660.75 -66 652.5 -66 644 C-67.97355469 644.03480469 -69.94710938 644.06960938 -71.98046875 644.10546875 C-90.54328169 644.33060549 -108.56367885 643.45000945 -127 641 C-127.87285645 640.88785156 -128.74571289 640.77570312 -129.64501953 640.66015625 C-164.06751787 636.10330662 -197.93221831 623.07921898 -219.84375 595.0546875 C-226.01193443 586.31642622 -230.90897395 577.19421686 -234.375 567.0625 C-234.71470825 566.08204712 -234.71470825 566.08204712 -235.0612793 565.08178711 C-239.13608952 552.24483331 -240.44823729 539.18861505 -240.22549438 525.80013466 C-240.1860902 523.40249856 -240.16738345 521.00537849 -240.15307617 518.60746765 C-240.11362492 512.65484572 -240.04118957 506.70272466 -239.96887207 500.75042725 C-238.14316025 455.35520824 -238.14316025 455.35520824 -256.375 415.1875 C-267.75432047 405.70473294 -279.55904812 403.92630712 -293.96484375 403.68359375 C-295.51480797 403.6524221 -295.51480797 403.6524221 -297.09608459 403.62062073 C-300.37649284 403.55556522 -303.65697685 403.49644596 -306.9375 403.4375 C-309.16992951 403.39427289 -311.40235154 403.35065729 -313.63476562 403.30664062 C-319.08976511 403.19992929 -324.54483892 403.09808356 -330 403 C-333.35039811 388.9394599 -333.23874463 374.69669379 -333.25 360.3125 C-333.25100708 359.41226105 -333.25201416 358.51202209 -333.25305176 357.58450317 C-333.24147169 342.19374427 -332.31107531 327.23533849 -330 312 C-329.85546387 310.99308105 -329.71092773 309.98616211 -329.56201172 308.94873047 C-317.80681744 227.72984111 -279.34493627 144.79893296 -213.65234375 93.09375 C-210.82680519 90.86328068 -208.10753308 88.53073054 -205.375 86.1875 C-191.29452214 74.48987224 -175.91053735 64.99381939 -160 56 C-159.23123535 55.56526367 -158.4624707 55.13052734 -157.67041016 54.68261719 C-129.54000918 38.93362116 -98.13945278 28.54597212 -66.625 22.125 C-65.5726416 21.90948486 -64.5202832 21.69396973 -63.43603516 21.47192383 C-58.19684092 20.45058147 -53.33782013 19.74438608 -48 20 C-47.95875 19.175 -47.9175 18.35 -47.875 17.5 C-46.03973668 10.15894674 -40.18840862 4.16669744 -34 0 C-23.24848523 -6.11658614 -10.85133169 -5.74681118 0 0 Z " fill="#3E84CE" transform="translate(570,150)"/>
<path d="M0 0 C22.44 0 44.88 0 68 0 C68 22.11 68 44.22 68 67 C45.56 67 23.12 67 0 67 C0 58.75 0 50.5 0 42 C-2.49111328 42.01047363 -4.98222656 42.02094727 -7.54882812 42.03173828 C-15.8388267 42.06508374 -24.12882846 42.08705111 -32.41887665 42.10362434 C-37.43830453 42.11400025 -42.45766289 42.12804434 -47.47705078 42.15087891 C-52.33353851 42.17283065 -57.18995996 42.184615 -62.04649353 42.18975449 C-63.8865615 42.19341061 -65.72662641 42.20054819 -67.56666565 42.21146011 C-97.42808002 42.38127999 -97.42808002 42.38127999 -104 38 C-98.10622337 37.90338071 -92.43291439 38.18557593 -86.578125 38.87890625 C-84.00226775 39.11131835 -84.00226775 39.11131835 -81.546875 38.46484375 C-79 38 -79 38 -76.54003906 38.45336914 C-71.63012907 39.21152697 -66.77413485 39.21632529 -61.8125 39.28125 C-60.71897217 39.29965942 -59.62544434 39.31806885 -58.4987793 39.33703613 C-54.99923934 39.39558971 -51.49964795 39.44833577 -48 39.5 C-31.64600702 39.74743739 -15.33628266 40.17770389 1 41 C1 48.92 1 56.84 1 65 C22.45 64.67 43.9 64.34 66 64 C66 43.54 66 23.08 66 2 C50.9953125 2.2165625 50.9953125 2.2165625 35.6875 2.4375 C32.53018311 2.48060303 29.37286621 2.52370605 26.11987305 2.56811523 C23.62548249 2.60623066 21.13109728 2.64469915 18.63671875 2.68359375 C16.68409119 2.7083075 16.68409119 2.7083075 14.6920166 2.73352051 C12.83486023 2.76379333 12.83486023 2.76379333 10.94018555 2.79467773 C9.86318893 2.81022202 8.78619232 2.8257663 7.67655945 2.84178162 C4.8978121 2.88978747 4.8978121 2.88978747 2 4 C1.96241577 4.90093384 1.96241577 4.90093384 1.92407227 5.82006836 C1.8084472 8.52611437 1.68557064 11.23178283 1.5625 13.9375 C1.52318359 14.88302734 1.48386719 15.82855469 1.44335938 16.80273438 C1.40146484 17.70185547 1.35957031 18.60097656 1.31640625 19.52734375 C1.27974854 20.35999756 1.24309082 21.19265137 1.20532227 22.05053711 C1 24 1 24 0 25 C-2.50834708 25.10039275 -4.98917702 25.13617471 -7.49804688 25.12939453 C-8.28352905 25.13114685 -9.06901123 25.13289917 -9.8782959 25.13470459 C-12.49180268 25.1391279 -15.10524245 25.1361812 -17.71875 25.1328125 C-19.53422051 25.13348594 -21.34969093 25.13445631 -23.16516113 25.13571167 C-26.98186089 25.13718973 -30.79853732 25.13503264 -34.61523438 25.13037109 C-39.48957963 25.12470607 -44.36386942 25.1279315 -49.23821259 25.13394356 C-52.99418548 25.13757399 -56.75014547 25.13639866 -60.50611877 25.13381577 C-62.30172228 25.13315166 -64.09732698 25.13395675 -65.89292908 25.13629532 C-68.41758273 25.138859 -70.94214961 25.13492797 -73.46679688 25.12939453 C-74.19962891 25.13141876 -74.93246094 25.13344299 -75.6875 25.13552856 C-80.85468025 25.11473986 -85.87143745 24.63600015 -91 24 C-91 23.67 -91 23.34 -91 23 C-60.97 23 -30.94 23 0 23 C0 15.41 0 7.82 0 0 Z " fill="#0F59A9" transform="translate(589,674)"/>
<path d="M0 0 C0.66 0 1.32 0 2 0 C2.19142578 1.00160156 2.19142578 1.00160156 2.38671875 2.0234375 C5.40023305 16.64953874 9.42462951 30.03096571 17 43 C17.51691406 43.88945313 18.03382813 44.77890625 18.56640625 45.6953125 C20.13111011 48.21077647 21.84534696 49.97209126 24 52 C25.70496537 53.62746694 27.37897032 55.28891311 29 57 C29 57.66 29 58.32 29 59 C30.485 59.495 30.485 59.495 32 60 C32.33 60.66 32.66 61.32 33 62 C34.88013106 63.12224855 34.88013106 63.12224855 37.0625 64.125 C37.79597656 64.47820312 38.52945313 64.83140625 39.28515625 65.1953125 C39.85105469 65.46085938 40.41695313 65.72640625 41 66 C41 66.99 41 67.98 41 69 C41.86625 69.185625 41.86625 69.185625 42.75 69.375 C45.02335767 70.00648824 46.9253529 70.88858191 49 72 C49 72.66 49 73.32 49 74 C49.53753906 74.10183594 50.07507813 74.20367188 50.62890625 74.30859375 C54.70241914 75.49642205 58.30203247 77.72106675 62.02734375 79.72265625 C65.0606069 81.02604265 66.77006859 81.07981709 70 81 C71.9921875 81.87109375 71.9921875 81.87109375 74 83 C80.29599297 85.66523664 86.05108953 87.43722131 92.90625 87.7265625 C95 88 95 88 98 90 C98.99 90 99.98 90 101 90 C102.38034893 90.31043992 103.75505487 90.64646577 105.125 91 C109.17334107 91.95099692 112.81616076 92.11636221 116.95703125 91.875 C119.38977766 92.02384873 120.8388707 92.91309153 123 94 C125.02459203 94.20371154 125.02459203 94.20371154 127.125 94.0625 C130.31656487 93.98503483 133.33268826 94.10543727 136.5 94.5 C141.11162054 95.01638675 145.67859752 95.04001377 150.3125 95 C165.48903393 94.89574015 165.48903393 94.89574015 172 96 C177.91138262 101.91138262 174 112.64004253 174 121 C194.79 121 215.58 121 237 121 C237.495 88.33 237.495 88.33 238 55 C216.55 55 195.1 55 173 55 C173 63.25 173 71.5 173 80 C172.67 80 172.34 80 172 80 C172 71.42 172 62.84 172 54 C194.11 54 216.22 54 239 54 C239 76.77 239 99.54 239 123 C216.89 123 194.78 123 172 123 C172 114.75 172 106.5 172 98 C170.02644531 98.03480469 168.05289063 98.06960938 166.01953125 98.10546875 C147.45671831 98.33060549 129.43632115 97.45000945 111 95 C109.69071533 94.83177734 109.69071533 94.83177734 108.35498047 94.66015625 C73.93248213 90.10330662 40.06778169 77.07921898 18.15625 49.0546875 C8.16738978 34.90380218 -0.34617229 17.65478701 0 0 Z " fill="#15427D" transform="translate(332,696)"/>
<path d="M0 0 C22.11 0 44.22 0 67 0 C67 21.45 67 42.9 67 65 C63.37 65 59.74 65 56 65 C56 64.67 56 64.34 56 64 C59.3 64 62.6 64 66 64 C66 43.54 66 23.08 66 2 C50.9953125 2.2165625 50.9953125 2.2165625 35.6875 2.4375 C32.53018311 2.48060303 29.37286621 2.52370605 26.11987305 2.56811523 C23.62548249 2.60623066 21.13109728 2.64469915 18.63671875 2.68359375 C16.68409119 2.7083075 16.68409119 2.7083075 14.6920166 2.73352051 C12.83486023 2.76379333 12.83486023 2.76379333 10.94018555 2.79467773 C9.86318893 2.81022202 8.78619232 2.8257663 7.67655945 2.84178162 C4.8978121 2.88978747 4.8978121 2.88978747 2 4 C1.96241577 4.90093384 1.96241577 4.90093384 1.92407227 5.82006836 C1.8084472 8.52611437 1.68557064 11.23178283 1.5625 13.9375 C1.52318359 14.88302734 1.48386719 15.82855469 1.44335938 16.80273438 C1.40146484 17.70185547 1.35957031 18.60097656 1.31640625 19.52734375 C1.27974854 20.35999756 1.24309082 21.19265137 1.20532227 22.05053711 C1 24 1 24 0 25 C-2.50834708 25.10039275 -4.98917702 25.13617471 -7.49804688 25.12939453 C-8.28352905 25.13114685 -9.06901123 25.13289917 -9.8782959 25.13470459 C-12.49180268 25.1391279 -15.10524245 25.1361812 -17.71875 25.1328125 C-19.53422051 25.13348594 -21.34969093 25.13445631 -23.16516113 25.13571167 C-26.98186089 25.13718973 -30.79853732 25.13503264 -34.61523438 25.13037109 C-39.48957963 25.12470607 -44.36386942 25.1279315 -49.23821259 25.13394356 C-52.99418548 25.13757399 -56.75014547 25.13639866 -60.50611877 25.13381577 C-62.30172228 25.13315166 -64.09732698 25.13395675 -65.89292908 25.13629532 C-68.41758273 25.138859 -70.94214961 25.13492797 -73.46679688 25.12939453 C-74.19962891 25.13141876 -74.93246094 25.13344299 -75.6875 25.13552856 C-80.85468025 25.11473986 -85.87143745 24.63600015 -91 24 C-91 23.67 -91 23.34 -91 23 C-60.97 23 -30.94 23 0 23 C0 15.41 0 7.82 0 0 Z " fill="#2B6EB6" transform="translate(589,674)"/>
<path d="M0 0 C7.05586604 3.59710818 11.31646062 7.82679173 15 15 C15 15.99 15 16.98 15 18 C16.15628906 18.02578125 17.31257812 18.0515625 18.50390625 18.078125 C75.95948078 19.82562174 133.33679883 36.82863236 180 71 C180.63147949 71.45858398 181.26295898 71.91716797 181.91357422 72.38964844 C193.40451299 80.78060965 193.40451299 80.78060965 195 85 C194.34 85 193.68 85 193 85 C193 84.34 193 83.68 193 83 C192.34 83 191.68 83 191 83 C189.66666667 81.66666667 188.33333333 80.33333333 187 79 C186.0409375 78.5359375 186.0409375 78.5359375 185.0625 78.0625 C182.17862609 76.57686799 180.28052936 74.28052936 178 72 C177.34 72 176.68 72 176 72 C174.66666667 70.66666667 173.33333333 69.33333333 172 68 C171.01 67.67 170.02 67.34 169 67 C169 66.34 169 65.68 169 65 C168.01 64.62875 168.01 64.62875 167 64.25 C163.23639093 62.68182955 159.6288576 60.85494954 156 59 C156 58.34 156 57.68 156 57 C154.90993652 56.82670166 154.90993652 56.82670166 153.79785156 56.64990234 C150.92190972 55.9818607 148.81627698 55.01685438 146.234375 53.6015625 C144.89826172 52.88226563 144.89826172 52.88226563 143.53515625 52.1484375 C141.69370125 51.14119002 139.85255005 50.1333869 138.01171875 49.125 C133.10938118 46.48690755 128.38448952 44.29335638 123.06103516 42.65917969 C119.94731742 41.66332114 116.99858219 40.29686964 114 39 C111.47596493 38.06981457 108.92986764 37.21623691 106.375 36.375 C105.73304688 36.1584375 105.09109375 35.941875 104.4296875 35.71875 C100.97861597 34.5731074 97.584407 33.61800121 94 33 C94 32.34 94 31.68 94 31 C92.515 31.495 92.515 31.495 91 32 C89.32700041 31.34938905 87.66140763 30.67966676 86 30 C83.66842508 29.65458149 81.33491639 29.32205743 79 29 C77.865625 28.67 76.73125 28.34 75.5625 28 C72.29955622 27.08408596 69.32383977 26.64056214 65.9765625 26.28515625 C64 26 64 26 60.375 24.9375 C57.05238693 24.01455192 54.4207756 23.9222551 51 24 C50.01 23.67 49.02 23.34 48 23 C42.68860348 22.16683976 37.36260013 21.78463398 32 21.4375 C31.33589111 21.39367187 30.67178223 21.34984375 29.98754883 21.3046875 C29.33165771 21.26472656 28.6757666 21.22476563 28 21.18359375 C27.34644531 21.14363281 26.69289063 21.10367188 26.01953125 21.0625 C23.97341066 20.97186179 23.97341066 20.97186179 21.82421875 21.109375 C16.41987096 21.3761344 16.41987096 21.3761344 14.125 19.3203125 C13.568125 18.23363281 13.568125 18.23363281 13 17.125 C12.608125 16.40570313 12.21625 15.68640625 11.8125 14.9453125 C11 13 11 13 11 11 C10.34 11 9.68 11 9 11 C8.5978125 10.0409375 8.5978125 10.0409375 8.1875 9.0625 C7.11332248 6.66868314 7.11332248 6.66868314 4 6 C4 5.34 4 4.68 4 4 C2.68 3.34 1.36 2.68 0 2 C0 1.34 0 0.68 0 0 Z " fill="#499FF8" transform="translate(567,149)"/>
<path d="M0 0 C22.11 0 44.22 0 67 0 C67 22.77 67 45.54 67 69 C44.89 69 22.78 69 0 69 C0 60.75 0 52.5 0 44 C-6.6 44 -13.2 44 -20 44 C-20 43.67 -20 43.34 -20 43 C-16.52085059 42.97112186 -13.04173169 42.95324313 -9.5625 42.9375 C-8.07266602 42.92493164 -8.07266602 42.92493164 -6.55273438 42.91210938 C-5.60849609 42.90888672 -4.66425781 42.90566406 -3.69140625 42.90234375 C-2.81685791 42.89710693 -1.94230957 42.89187012 -1.04125977 42.88647461 C1 43 1 43 2 44 C2 51.59 2 59.18 2 67 C22.79 67 43.58 67 65 67 C65.33 45.22 65.66 23.44 66 1 C44.55 1 23.1 1 1 1 C1 9.25 1 17.5 1 26 C0.67 26 0.34 26 0 26 C0 17.42 0 8.84 0 0 Z " fill="#042E72" transform="translate(504,750)"/>
<path d="M0 0 C0.33 0 0.66 0 1 0 C0.99555878 0.86871231 0.99111755 1.73742462 0.98654175 2.63246155 C0.94620079 10.88353356 0.91588278 19.13457168 0.89637566 27.38572025 C0.88600922 31.62608668 0.87198329 35.86637053 0.84912109 40.10668945 C0.82713448 44.21104665 0.81537795 48.31532524 0.81024551 52.41973686 C0.80659546 53.97315137 0.79947048 55.52656236 0.78853989 57.0799427 C0.69926377 70.31287151 1.20407837 83.52737389 5.6875 96.125 C5.95022705 96.87797363 6.2129541 97.63094727 6.48364258 98.40673828 C10.5938976 109.79438445 16.05958921 118.70492354 24.44921875 127.34375 C26.80203898 129.79385377 28.9230316 132.31501977 31 135 C30.34 135.33 29.68 135.66 29 136 C27.62437146 134.71034824 26.29233607 133.37310707 25 132 C25 131.34 25 130.68 25 130 C24.01 130 23.02 130 22 130 C20.97862543 128.34634594 19.98387706 126.67623498 19 125 C17.98029318 123.97761678 16.93701046 122.97836763 15.875 122 C13.25228379 119.49413748 12.21960064 117.73321086 12 114 C11.34 114 10.68 114 10 114 C9.01585567 112.08588443 8.03786651 110.1686033 7.0625 108.25 C6.51722656 107.18265625 5.97195313 106.1153125 5.41015625 105.015625 C4.23938971 102.51193589 3.62739744 100.64059424 3 98 C2.68772461 96.90461914 2.37544922 95.80923828 2.05371094 94.68066406 C-0.65360062 84.93616344 -1.65083147 75.83469963 -1.75 65.75 C-1.77713765 64.30417334 -1.80563653 62.85837163 -1.83544922 61.41259766 C-1.91477745 57.27515087 -1.95956345 53.13800744 -2 49 C-2.01514648 47.89688477 -2.03029297 46.79376953 -2.04589844 45.65722656 C-2.0828292 42.89642723 -2.10900352 40.13599292 -2.125 37.375 C-2.12983398 36.60768555 -2.13466797 35.84037109 -2.13964844 35.04980469 C-2.12551936 30.60318226 -1.62774881 26.3942417 -1 22 C-0.74316252 18.1902441 -0.5889176 14.37772715 -0.4375 10.5625 C-0.39431641 9.54478516 -0.35113281 8.52707031 -0.30664062 7.47851562 C-0.20131418 4.98578972 -0.09918328 2.49297662 0 0 Z " fill="#124385" transform="translate(348,614)"/>
<path d="M0 0 C0.33 0 0.66 0 1 0 C1.36256858 1.4562672 1.71479793 2.91511185 2.0625 4.375 C2.35833984 5.59316406 2.35833984 5.59316406 2.66015625 6.8359375 C3 9 3 9 2 11 C4.6877438 10.85790331 7.37513302 10.7114277 10.0625 10.5625 C11.19075195 10.50352539 11.19075195 10.50352539 12.34179688 10.44335938 C15.76209882 10.25087485 19.08167087 9.98759779 22.47265625 9.47265625 C26.79790767 8.89308214 31.01746927 8.85381265 35.375 8.875 C36.19355469 8.87113281 37.01210938 8.86726562 37.85546875 8.86328125 C43.873261 8.873261 43.873261 8.873261 45 10 C46.81052232 10.13422324 48.623811 10.23163489 50.4375 10.3125 C56.57399905 10.76597192 61.48436326 12.35209468 67 15 C67.7321875 15.33128906 68.464375 15.66257812 69.21875 16.00390625 C71 17 71 17 72 19 C73.485 19.495 73.485 19.495 75 20 C76.1875 22.5625 76.1875 22.5625 77 25 C77.66 25 78.32 25 79 25 C83 30.29411765 83 30.29411765 83 34 C84.485 34.495 84.485 34.495 86 35 C86.12375 35.804375 86.2475 36.60875 86.375 37.4375 C86.684375 38.7059375 86.684375 38.7059375 87 40 C87.66 40.33 88.32 40.66 89 41 C88.505 41.99 88.505 41.99 88 43 C88.474375 44.155 88.94875 45.31 89.4375 46.5 C91.39715889 51.34570198 91.28523785 55.84458991 91 61 C89.01291947 57.51176256 88.22225503 54.0192455 87.3125 50.125 C84.75480595 39.90681086 80.40618568 27.80187321 71.73828125 21.3046875 C60.30663193 14.5671937 50.13501571 12.9043043 37.03515625 12.68359375 C36.00184677 12.66281265 34.96853729 12.64203156 33.90391541 12.62062073 C30.62350716 12.55556522 27.34302315 12.49644596 24.0625 12.4375 C21.83007049 12.39427289 19.59764846 12.35065729 17.36523438 12.30664062 C11.91023489 12.19992929 6.45516108 12.09808356 1 12 C-0.09436179 7.86490287 -0.07127804 4.27668213 0 0 Z " fill="#2362A7" transform="translate(239,541)"/>
<path d="M0 0 C3.42561368 1.27632707 6.36927937 2.77187509 9.4375 4.75 C37.93026884 21.96264041 72.6540081 24.74887251 105.125 26.125 C107.06643055 26.2116971 109.00783708 26.29893397 110.94921875 26.38671875 C115.63256015 26.59734076 120.31616133 26.80075587 125 27 C125 27.33 125 27.66 125 28 C120.71356265 28.1687634 116.42691518 28.32918968 112.13989258 28.48217773 C110.68407983 28.53527189 109.22834567 28.59057186 107.77270508 28.64819336 C105.67025702 28.73102362 103.56764622 28.80569592 101.46484375 28.87890625 C100.202771 28.9260376 98.94069824 28.97316895 97.64038086 29.02172852 C93.99600748 28.99997617 90.59351382 28.5785745 87 28 C85.6046849 27.96196756 84.2075744 27.95397693 82.8125 28 C79.69219497 28 77.90627364 27.73059744 75 27 C72.15616132 26.70665274 69.31174059 26.4952513 66.4609375 26.28125 C64 26 64 26 62 25 C60.60798105 24.82139064 59.21096613 24.68044293 57.8125 24.5625 C53.68861882 24.14156157 49.9745073 23.20654686 46 22 C44.4815987 21.65575788 42.96057776 21.322923 41.4375 21 C37.86033467 20.22738096 34.45857087 19.20647821 31 18 C29.67088318 17.65023242 28.33917261 17.30903983 27 17 C27 16.34 27 15.68 27 15 C25.700625 15.12375 25.700625 15.12375 24.375 15.25 C20.19022327 14.94001654 18.3625469 13.43248074 15 11 C13.34416775 10.30686092 11.67889021 9.63525576 10 9 C9.01 8.34 8.02 7.68 7 7 C7 6.34 7 5.68 7 5 C6.01 5 5.02 5 4 5 C4 4.34 4 3.68 4 3 C2.68 2.67 1.36 2.34 0 2 C0 1.34 0 0.68 0 0 Z " fill="#103C7B" transform="translate(379,749)"/>
<path d="M0 0 C3.84596966 0.40914571 7.28928395 1.02159278 10.9375 2.3125 C15.14491646 3.79620564 19.41368249 4.84941918 23.75 5.875 C30.09443688 7.3954322 36.08104738 9.38369984 42.1328125 11.8515625 C45.05593362 13.02240393 48.00456372 14.03114969 51 15 C51 15.66 51 16.32 51 17 C52.07314453 17.17402344 52.07314453 17.17402344 53.16796875 17.3515625 C56.14092698 18.03226742 58.56374202 19.06227911 61.3125 20.375 C64.67354298 21.95346553 67.99283858 23.4062452 71.5 24.625 C74.82809108 25.93246435 75.65005574 26.60776882 78 29 C79.24489698 29.75298405 80.51970486 30.45759142 81.8125 31.125 C86.170722 33.48450098 90.37690736 36.03766651 94.5625 38.6875 C95.19454346 39.08018066 95.82658691 39.47286133 96.4777832 39.87744141 C98.0216544 40.86339681 99.51624459 41.92570199 101 43 C101 43.66 101 44.32 101 45 C101.639375 45.103125 102.27875 45.20625 102.9375 45.3125 C103.618125 45.539375 104.29875 45.76625 105 46 C105.33 46.99 105.66 47.98 106 49 C102.8493086 47.57210045 100.07512154 45.7364423 97.23144531 43.77709961 C68.01556028 23.67869159 34.80265531 9.78314357 0 3 C0 2.01 0 1.02 0 0 Z " fill="#4C9FF8" transform="translate(634,189)"/>
<path d="M0 0 C16.47044125 6.98523178 29.4743771 34.45812921 38 49 C38.63615234 50.084021 38.63615234 50.084021 39.28515625 51.18994141 C44.45476376 60.13651875 48.56528211 69.42521352 52.4375 79 C52.86313232 80.0509082 53.28876465 81.10181641 53.72729492 82.18457031 C56.04849526 88.0831721 57.81272605 93.77167763 59 100 C58.01 100.495 58.01 100.495 57 101 C56.82984375 100.32195312 56.6596875 99.64390625 56.484375 98.9453125 C54.43231839 91.0645419 51.64421016 83.79339887 48.41015625 76.33203125 C48.13598877 75.69821533 47.86182129 75.06439941 47.5793457 74.41137695 C46.78212549 72.57403898 45.9771601 70.74006755 45.171875 68.90625 C44 66 44 66 44 64 C43.34 64 42.68 64 42 64 C39.81668822 59.33888322 37.95237752 55.07934676 37 50 C36.01 49.505 36.01 49.505 35 49 C34.27306096 47.02111039 33.60183749 45.02045442 33 43 C32.34 43 31.68 43 31 43 C30.74605469 42.45730469 30.49210938 41.91460937 30.23046875 41.35546875 C29.88628906 40.64003906 29.54210937 39.92460937 29.1875 39.1875 C28.85105469 38.47980469 28.51460937 37.77210938 28.16796875 37.04296875 C26.97950949 34.96415873 25.70494651 33.66145298 24 32 C23.06624374 30.67169884 22.17049112 29.31595419 21.3125 27.9375 C20.65701172 26.89916016 20.65701172 26.89916016 19.98828125 25.83984375 C19 24 19 24 19 22 C18.34 22 17.68 22 17 22 C16.731875 21.401875 16.46375 20.80375 16.1875 20.1875 C14.97459756 17.95320603 13.85504036 16.71762996 12 15 C8.67970905 11.84572359 6.31616062 8.92740279 4 5 C2.68557638 3.64802142 1.3565164 2.30973998 0 1 C0 0.67 0 0.34 0 0 Z " fill="#489CF5" transform="translate(780,251)"/>
<path d="M0 0 C0.66 0 1.32 0 2 0 C2 3.96 2 7.92 2 12 C3.02246826 11.98952637 4.04493652 11.97905273 5.09838867 11.96826172 C8.95447171 11.9315897 12.81053993 11.90893099 16.66674805 11.89013672 C18.32400113 11.88018517 19.98123715 11.86661907 21.63842773 11.84912109 C31.65403187 11.74614845 41.13824999 12.04287454 51 14 C51 14.66 51 15.32 51 16 C51.66 16 52.32 16 53 16 C54.2890625 17.64453125 54.2890625 17.64453125 55.625 19.8125 C56.07101562 20.52019531 56.51703125 21.22789062 56.9765625 21.95703125 C58 24 58 24 58 27 C58.66 27 59.32 27 60 27 C60.62457273 30.43515002 61 33.49064814 61 37 C61.66 37 62.32 37 63 37 C62.67 39.31 62.34 41.62 62 44 C60.22796737 40.81942861 59.40602525 37.7967735 58.625 34.25 C56.65775238 25.53062121 56.65775238 25.53062121 51.328125 18.66015625 C46.86640351 15.98121663 42.8167908 14.90276366 37.69042969 14.79467773 C36.4295755 14.7647599 36.4295755 14.7647599 35.14324951 14.73423767 C34.24519592 14.71752518 33.34714233 14.70081268 32.421875 14.68359375 C31.03201385 14.6524221 31.03201385 14.6524221 29.61407471 14.62062073 C26.65945728 14.55533039 23.70475232 14.49633569 20.75 14.4375 C18.74478268 14.39429527 16.73957415 14.35068035 14.734375 14.30664062 C9.82300596 14.19967001 4.91154903 14.09834482 0 14 C0 9.38 0 4.76 0 0 Z " fill="#256BB4" transform="translate(351,538)"/>
<path d="M0 0 C0.33 0 0.66 0 1 0 C1.33 3.96 1.66 7.92 2 12 C2.66 12 3.32 12 4 12 C4.12117188 12.77085937 4.24234375 13.54171875 4.3671875 14.3359375 C4.53476562 15.33882812 4.70234375 16.34171875 4.875 17.375 C5.03742188 18.37273438 5.19984375 19.37046875 5.3671875 20.3984375 C5.7958802 23.1425115 5.7958802 23.1425115 8 25 C8.74609375 26.76953125 8.74609375 26.76953125 9.4375 28.8125 C10.62477959 32.15020946 12.13499275 34.98046445 14 38 C14 38.66 14 39.32 14 40 C14.66 40 15.32 40 16 40 C16 40.99 16 41.98 16 43 C16.66 43 17.32 43 18 43 C18.556875 43.70125 19.11375 44.4025 19.6875 45.125 C23.08573879 49.34983741 26.78983765 53.26327922 32 55 C32 55.66 32 56.32 32 57 C32.99 57 33.98 57 35 57 C35 57.66 35 58.32 35 59 C36.258125 59.391875 37.51625 59.78375 38.8125 60.1875 C45.48937056 62.40959638 52.1325937 65.0883958 58 69 C51.97039682 68.5238022 47.52517792 67.23543383 42.1875 64.4375 C41.49462891 64.08107422 40.80175781 63.72464844 40.08789062 63.35742188 C19.60968861 52.55844417 7.79121074 36.83057016 1 15 C0.2377907 11.32052535 -0.11935989 7.87775249 -0.0625 4.125 C-0.05347656 3.34382812 -0.04445313 2.56265625 -0.03515625 1.7578125 C-0.02355469 1.17773438 -0.01195312 0.59765625 0 0 Z " fill="#1A589F" transform="translate(414,640)"/>
<path d="M0 0 C0.33 0 0.66 0 1 0 C1.87049002 5.35009035 2.2174739 10.57690895 2.3515625 15.9921875 C2.37507782 16.84733948 2.39859314 17.70249146 2.42282104 18.58355713 C2.49587258 21.34726198 2.5611935 24.1110672 2.625 26.875 C2.64812256 27.81696228 2.67124512 28.75892456 2.69506836 29.72943115 C2.98574406 41.88014078 3.0184496 53.92652819 2.33422852 66.06616211 C1.94915899 73.19650131 2.2231351 80.08233566 2.94140625 87.18359375 C2.96074219 88.11300781 2.98007812 89.04242187 3 90 C2.01 90.99 2.01 90.99 1 92 C-0.16867153 87.82080216 -0.13269261 83.77798283 -0.11352539 79.46777344 C-0.11367142 78.60887512 -0.11381744 77.74997681 -0.1139679 76.86505127 C-0.11327196 74.02980004 -0.10549445 71.19461474 -0.09765625 68.359375 C-0.09579094 66.39211055 -0.09436757 64.42484564 -0.09336853 62.45758057 C-0.08955227 57.28233556 -0.07972956 52.10711867 -0.06866455 46.93188477 C-0.0584313 41.64990621 -0.0538668 36.36792311 -0.04882812 31.0859375 C-0.03810651 20.72394599 -0.02104075 10.36197533 0 0 Z " fill="#0D448B" transform="translate(330,603)"/>
<path d="M0 0 C4.44708091 4.44708091 3.05742252 13.69651008 3.11352539 19.66479492 C3.11336935 22.1033586 3.10785744 24.54192641 3.09765625 26.98046875 C3.0962413 28.27447098 3.09482635 29.56847321 3.09336853 30.90168762 C3.08959305 34.30296851 3.07980669 37.70420509 3.06866455 41.10546875 C3.05834213 44.59179078 3.05384796 48.07812014 3.04882812 51.56445312 C3.03817873 58.37632001 3.02116388 65.18815787 3 72 C2.67 72 2.34 72 2 72 C0.81743258 64.42483505 0.77721792 56.87200568 0.68359375 49.21875 C0.66298677 47.79528247 0.64198942 46.37182055 0.62062073 44.94836426 C0.56578615 41.22652768 0.51620889 37.50463947 0.46777344 33.78271484 C0.41727393 29.97488891 0.36173734 26.16713669 0.30664062 22.359375 C0.19953239 14.90631266 0.09798513 7.45318846 0 0 Z " fill="#1B63AE" transform="translate(428,573)"/>
<path d="M0 0 C33.6589459 -0.41471547 33.6589459 -0.41471547 48 2 C49.11713379 2.1846582 49.11713379 2.1846582 50.25683594 2.37304688 C56.85950121 3.47121462 63.4406519 4.66524893 70 6 C70.495 7.485 70.495 7.485 71 9 C70.01 9 69.02 9 68 9 C68 8.34 68 7.68 68 7 C67.06027344 7.01740234 67.06027344 7.01740234 66.1015625 7.03515625 C65.28429687 7.04417969 64.46703125 7.05320312 63.625 7.0625 C62.81289063 7.07410156 62.00078125 7.08570313 61.1640625 7.09765625 C59 7 59 7 57 6 C54.7013861 5.72151408 52.40228057 5.55504413 50.09375 5.37890625 C47.44702828 5.05474968 44.98936286 4.55263616 42.39453125 3.96484375 C36.61839748 2.77791542 31.05975954 2.85741478 25.1875 3 C16.5533882 3.1167489 8.46718881 2.85219755 0 1 C0 0.67 0 0.34 0 0 Z " fill="#4797EB" transform="translate(564,277)"/>
<path d="M0 0 C-0.33 0.99 -0.66 1.98 -1 3 C-1.68964844 2.77183594 -2.37929688 2.54367188 -3.08984375 2.30859375 C-11.77022377 -0.3467214 -17.80129083 -0.66649347 -26.125 3.125 C-33.05007811 6.89353088 -37.28437014 11.04166229 -40.375 18.3125 C-42.37651248 22.6734113 -42.37651248 22.6734113 -45.1328125 24.1171875 C-49.24365454 25.10758839 -52.91889699 25.31648484 -57 24 C-57 23.67 -57 23.34 -57 23 C-50.565 22.505 -50.565 22.505 -44 22 C-43.67 20.02 -43.34 18.04 -43 16 C-38.56418805 7.90241041 -31.43225325 1.84445157 -22.81640625 -1.3125 C-15.22662728 -3.1652061 -7.30269372 -2.71728138 0 0 Z " fill="#4A9BF2" transform="translate(566,148)"/>
<path d="M0 0 C11.80434452 -1.07312223 24.17363267 5.21008938 33.07421875 12.52734375 C41.99004813 20.62465704 48.04390143 30.61612451 52 42 C51.625 44.3125 51.625 44.3125 51 46 C50.67 44.35 50.34 42.7 50 41 C49.34 41 48.68 41 48 41 C47.87882812 40.36191406 47.75765625 39.72382812 47.6328125 39.06640625 C47.46523438 38.24011719 47.29765625 37.41382813 47.125 36.5625 C46.96257812 35.73878906 46.80015625 34.91507813 46.6328125 34.06640625 C46.42398438 33.38449219 46.21515625 32.70257812 46 32 C45.34 31.67 44.68 31.34 44 31 C44 30.01 44 29.02 44 28 C43.34 28 42.68 28 42 28 C41.4121875 26.6696875 41.4121875 26.6696875 40.8125 25.3125 C38.90976884 21.83509477 36.89359906 19.6818723 34 17 C33.29875 16.236875 32.5975 15.47375 31.875 14.6875 C30.04877868 12.66551763 30.04877868 12.66551763 27 13 C27 12.01 27 11.02 27 10 C26.01 10 25.02 10 24 10 C24 9.34 24 8.68 24 8 C23.0409375 7.8453125 23.0409375 7.8453125 22.0625 7.6875 C18.65321657 6.92215066 15.44256277 5.82303062 12.140625 4.69140625 C9.78500998 3.93055979 7.42770872 3.47205447 5 3 C3.3207762 2.36562656 1.64991582 1.70710678 0 1 C0 0.67 0 0.34 0 0 Z " fill="#1B5EA8" transform="translate(291,536)"/>
<path d="M0 0 C1.81609674 3.11440122 2.24769301 5.36796735 2.23046875 8.95703125 C2.22853516 9.90513672 2.22660156 10.85324219 2.22460938 11.83007812 C2.21236328 12.81427734 2.20011719 13.79847656 2.1875 14.8125 C2.18685547 15.78509766 2.18621094 16.75769531 2.18554688 17.75976562 C2.16042389 21.88272598 2.09577333 25.91340767 1.4609375 29.9921875 C0.91340943 33.56504016 1.45560805 36.43120836 2 40 C2.53709142 49.63780723 2.53709142 49.63780723 0 54 C-0.8530276 48.09869239 -1.14717306 42.38394846 -1.1328125 36.42578125 C-1.13376923 35.53892136 -1.13472595 34.65206146 -1.13571167 33.73832703 C-1.13638805 31.87690153 -1.13457185 30.01547361 -1.13037109 28.15405273 C-1.1249959 25.31033036 -1.13034435 22.46676453 -1.13671875 19.62304688 C-1.13605825 17.80729132 -1.13477766 15.99153586 -1.1328125 14.17578125 C-1.13483673 13.32985916 -1.13686096 12.48393707 -1.13894653 11.61238098 C-1.12306559 7.60883543 -0.99725007 3.90729905 0 0 Z " fill="#2968AC" transform="translate(238,484)"/>
<path d="M0 0 C5.89377663 -0.09661929 11.56708561 0.18557593 17.421875 0.87890625 C19.99773225 1.11131835 19.99773225 1.11131835 22.453125 0.46484375 C25 0 25 0 27.52099609 0.45117188 C32.09139607 1.17217252 36.59055235 1.23350777 41.2109375 1.31640625 C42.17907379 1.33718735 43.14721008 1.35796844 44.14468384 1.37937927 C47.22138732 1.44448984 50.29817236 1.50357998 53.375 1.5625 C55.46745617 1.60572186 57.55990426 1.6493373 59.65234375 1.69335938 C64.76814669 1.80013156 69.88403125 1.90150636 75 2 C75 2.33 75 2.66 75 3 C67.3180446 3.19571935 59.6358113 3.3725897 51.953125 3.53710938 C49.34625703 3.5950684 46.739477 3.6571497 44.1328125 3.72363281 C6.99519764 4.66346509 6.99519764 4.66346509 0 0 Z " fill="#2061A5" transform="translate(485,712)"/>
<path d="M0 0 C2.4052292 2.19097027 3.79371006 4.29030346 5.25 7.1875 C13.86857446 22.83236098 28.71386659 29.60654023 45 35 C45 35.66 45 36.32 45 37 C43.68 37 42.36 37 41 37 C41 36.34 41 35.68 41 35 C40.38253906 34.90203125 39.76507813 34.8040625 39.12890625 34.703125 C31.85163689 33.41824944 24.05900874 31.78388164 19 26 C18.67 25.34 18.34 24.68 18 24 C17.2575 23.731875 16.515 23.46375 15.75 23.1875 C10.87321232 21.08161441 8.2538027 17.6578589 6 13 C5.34 12.360625 4.68 11.72125 4 11.0625 C0.61701994 7.57380182 0 4.81138719 0 0 Z " fill="#1959A0" transform="translate(434,658)"/>
<path d="M0 0 C0.33 0 0.66 0 1 0 C1 9.9 1 19.8 1 30 C5.62 30 10.24 30 15 30 C17.34177897 30.26763188 19.68460579 30.55897253 22 31 C22 31.33 22 31.66 22 32 C18.37506666 32.05787784 14.75025143 32.0935542 11.125 32.125 C10.09246094 32.14175781 9.05992187 32.15851562 7.99609375 32.17578125 C6.51689453 32.18544922 6.51689453 32.18544922 5.0078125 32.1953125 C3.64100342 32.21102295 3.64100342 32.21102295 2.24658203 32.22705078 C0 32 0 32 -2 30 C-2.9068127 19.93171197 -1.57759637 9.93040574 0 0 Z " fill="#2D71B9" transform="translate(368,503)"/>
<path d="M0 0 C1.94326172 -0.02126953 1.94326172 -0.02126953 3.92578125 -0.04296875 C7.5537588 0.17930609 10.3207728 0.86690778 13.6875 2.1875 C13.3575 3.1775 13.0275 4.1675 12.6875 5.1875 C12.130625 4.878125 11.57375 4.56875 11 4.25 C3.70391586 0.89774513 -3.58717296 1.89187226 -11.01171875 4.2578125 C-13.91255949 5.42996886 -16.00820338 7.09268489 -18.3125 9.1875 C-21.97232807 10.40744269 -22.89365302 9.67776663 -26.3125 8.1875 C-26.9725 8.1875 -27.6325 8.1875 -28.3125 8.1875 C-28.3125 7.5275 -28.3125 6.8675 -28.3125 6.1875 C-29.22 6.22875 -30.1275 6.27 -31.0625 6.3125 C-34.1907046 6.19218444 -35.69864006 5.7960292 -38.3125 4.1875 C-37.9825 3.5275 -37.6525 2.8675 -37.3125 2.1875 C-36.20132813 2.61804688 -35.09015625 3.04859375 -33.9453125 3.4921875 C-25.64440032 6.7419216 -25.64440032 6.7419216 -17.0625 6.21875 C-14.63486819 4.68702993 -12.50418424 3.03360747 -10.3125 1.1875 C-6.73036361 -0.00654546 -3.77628742 0.018676 0 0 Z " fill="#4397EF" transform="translate(674.3125,281.8125)"/>
<path d="M0 0 C3.42561368 1.27632707 6.36927937 2.77187509 9.4375 4.75 C20.87791873 11.68512109 33.19762972 15.4971723 46 19 C46 19.99 46 20.98 46 22 C40.88059146 20.93061244 35.94595803 19.7253342 31 18 C29.67088318 17.65023242 28.33917261 17.30903983 27 17 C27 16.34 27 15.68 27 15 C25.700625 15.12375 25.700625 15.12375 24.375 15.25 C20.19022327 14.94001654 18.3625469 13.43248074 15 11 C13.34416775 10.30686092 11.67889021 9.63525576 10 9 C9.01 8.34 8.02 7.68 7 7 C7 6.34 7 5.68 7 5 C6.01 5 5.02 5 4 5 C4 4.34 4 3.68 4 3 C2.68 2.67 1.36 2.34 0 2 C0 1.34 0 0.68 0 0 Z " fill="#12417E" transform="translate(379,749)"/>
<path d="M0 0 C4.99127463 1.24781866 7.22482308 2.65520688 10 7 C10.42578125 10.20703125 10.42578125 10.20703125 10.3125 13.8125 C10.27640625 15.12347656 10.2403125 16.43445313 10.203125 17.78515625 C10.13843211 19.19024625 10.07064155 20.59519651 10 22 C9.96712891 22.72944824 9.93425781 23.45889648 9.90039062 24.21044922 C9.3002537 37.09923889 9.3002537 37.09923889 8 41 C7.34 40.67 6.68 40.34 6 40 C6.33 28.45 6.66 16.9 7 5 C5.02 4.34 3.04 3.68 1 3 C0.67 2.01 0.34 1.02 0 0 Z " fill="#3F91E6" transform="translate(825,410)"/>
<path d="M0 0 C1.70757301 0.15448156 3.41602405 0.29940093 5.125 0.4375 C14.22240687 1.23837213 23.18832055 2.5811076 32 5 C31.67 5.66 31.34 6.32 31 7 C29.12248047 6.72736328 29.12248047 6.72736328 27.20703125 6.44921875 C11.50918164 4.21714801 -4.22258177 2.55376095 -20 1 C-14.21012816 -2.85991456 -6.59807487 -1.04180129 0 0 Z " fill="#4C9FF6" transform="translate(601,184)"/>
<path d="M0 0 C0.33 0 0.66 0 1 0 C1.36256858 1.4562672 1.71479793 2.91511185 2.0625 4.375 C2.35833984 5.59316406 2.35833984 5.59316406 2.66015625 6.8359375 C3 9 3 9 2 11 C4.6877438 10.85790331 7.37513302 10.7114277 10.0625 10.5625 C11.19075195 10.50352539 11.19075195 10.50352539 12.34179688 10.44335938 C15.78152984 10.24978133 19.12017782 9.98192015 22.53125 9.46875 C26.53663377 8.92748192 30.40382081 8.88952394 34.4375 8.9375 C35.53481445 8.94426758 35.53481445 8.94426758 36.65429688 8.95117188 C38.43623419 8.96281852 40.21812863 8.98074809 42 9 C41.34 9.99 40.68 10.98 40 12 C37.0204901 12.26653946 34.2511418 12.34767784 31.2734375 12.29296875 C30.41062164 12.28872391 29.54780579 12.28447906 28.65884399 12.28010559 C25.89724803 12.26328392 23.13637617 12.22562598 20.375 12.1875 C18.50521886 12.17245764 16.6354263 12.15876846 14.765625 12.14648438 C10.17680342 12.11336906 5.58852456 12.06156339 1 12 C-0.09436179 7.86490287 -0.07127804 4.27668213 0 0 Z " fill="#2766A7" transform="translate(239,541)"/>
<path d="M0 0 C0.66 0 1.32 0 2 0 C2.19142578 1.00160156 2.19142578 1.00160156 2.38671875 2.0234375 C5.72099769 18.9967927 5.72099769 18.9967927 12.62109375 34.67578125 C14 37 14 37 14 39 C11 38 11 38 9.31640625 34.9296875 C8.71703144 33.58459657 8.13335151 32.23244183 7.5625 30.875 C7.25755615 30.16158447 6.9526123 29.44816895 6.63842773 28.71313477 C2.8059122 19.47419833 -0.32172163 10.10205924 0 0 Z " fill="#144684" transform="translate(332,696)"/>
<path d="M0 0 C4.54427472 4.08492565 7.38183193 8.57678503 10.375 13.875 C10.85179199 14.7098291 11.32858398 15.5446582 11.81982422 16.40478516 C22.73490437 35.76145044 22.73490437 35.76145044 24 44 C23.34 44 22.68 44 22 44 C22 42.68 22 41.36 22 40 C20.515 39.505 20.515 39.505 19 39 C18.04296875 36.62890625 18.04296875 36.62890625 17.1875 33.5625 C15.25438317 27.36041685 12.48121424 22.43991161 9 17 C7.73924883 14.90225744 6.48944277 12.79790256 5.25 10.6875 C4.39148438 9.23923828 4.39148438 9.23923828 3.515625 7.76171875 C2.12068897 5.21991522 1.008713 2.7146247 0 0 Z " fill="#3E91E8" transform="translate(742,355)"/>
<path d="M0 0 C0.99 0 1.98 0 3 0 C5 5.75 5 5.75 5 8 C5.66 8.33 6.32 8.66 7 9 C10.72648077 15.91436861 12.88797378 23.47590658 15 31 C15.350625 32.216875 15.70125 33.43375 16.0625 34.6875 C16.75065236 37.11897167 17.41043919 39.54349662 18 42 C16.515 41.505 16.515 41.505 15 41 C13.92242956 38.12044201 13.02305655 35.3250898 12.1875 32.375 C8.86310645 21.23696864 4.59129242 10.67238475 0 0 Z " fill="#479AF0" transform="translate(807,321)"/>
<path d="M0 0 C2.85423192 -0.02718316 5.70820015 -0.04692705 8.5625 -0.0625 C9.36236328 -0.07087891 10.16222656 -0.07925781 10.98632812 -0.08789062 C17.73119656 -0.1154207 23.97107117 0.52513201 30.4375 2.5625 C31.73494141 2.96662109 31.73494141 2.96662109 33.05859375 3.37890625 C33.69925781 3.58386719 34.33992187 3.78882813 35 4 C35.66 3.34 36.32 2.68 37 2 C37 3.32 37 4.64 37 6 C35.45808846 5.85677897 33.91648108 5.71028211 32.375 5.5625 C31.08722656 5.44068359 31.08722656 5.44068359 29.7734375 5.31640625 C27 5 27 5 24.2734375 4.48828125 C19.09210532 3.7154095 13.86979436 3.6798238 8.63671875 3.5703125 C7.81300781 3.539375 6.98929688 3.5084375 6.140625 3.4765625 C5.39329102 3.45674316 4.64595703 3.43692383 3.87597656 3.41650391 C2 3 2 3 0 0 Z " fill="#599EE5" transform="translate(587,350)"/>
<path d="M0 0 C0.33 0 0.66 0 1 0 C1 14.19 1 28.38 1 43 C0.67 43 0.34 43 0 43 C-0.33 44.98 -0.66 46.96 -1 49 C-1.33 49 -1.66 49 -2 49 C-2.02932572 45.81251971 -2.04690739 42.62507472 -2.0625 39.4375 C-2.07087891 38.54224609 -2.07925781 37.64699219 -2.08789062 36.72460938 C-2.10631933 31.69357386 -1.7432529 26.98416652 -1 22 C-0.74201463 18.19033247 -0.58891698 14.37771147 -0.4375 10.5625 C-0.39431641 9.54478516 -0.35113281 8.52707031 -0.30664062 7.47851562 C-0.20131418 4.98578972 -0.09918328 2.49297662 0 0 Z " fill="#1C559A" transform="translate(348,614)"/>
<path d="M0 0 C1.35014179 4.05042537 0.20210859 5.82754682 -1.25 9.8125 C-3.83282448 17.11538006 -5.5561319 24.38154148 -7 32 C-7.66 32 -8.32 32 -9 32 C-9.185625 33.60875 -9.185625 33.60875 -9.375 35.25 C-9.90777722 38.44666333 -10.49837492 40.24091652 -12 43 C-11.69679499 34.95621897 -9.6434684 27.70895465 -7.18920898 20.07519531 C-6.55785294 18.11053928 -5.9409148 16.14178565 -5.32617188 14.171875 C-2.03663211 3.76125974 -2.03663211 3.76125974 0 0 Z " fill="#216AB9" transform="translate(260,383)"/>
<path d="M0 0 C4.03453354 1.34484451 4.72319069 3.48129471 7 7 C12.19872993 13.27432923 20.17422122 15.14804897 28 16 C30.76535232 15.88384627 33.2684355 15.50584528 36 15 C35.67 15.99 35.34 16.98 35 18 C23.80307265 18.57338462 16.45493154 17.83014147 7.6875 10.6875 C4.19745711 7.46913709 2.0808714 4.24844577 0 0 Z " fill="#4396EF" transform="translate(523,188)"/>
<path d="M0 0 C3.43927579 1.2419607 6.25207819 2.55740284 9 5 C9 5.66 9 6.32 9 7 C9.556875 7.2475 10.11375 7.495 10.6875 7.75 C15.52171983 10.3630918 19.14650976 14.14650976 23 18 C23.928125 18.721875 24.85625 19.44375 25.8125 20.1875 C26.534375 20.785625 27.25625 21.38375 28 22 C28 22.66 28 23.32 28 24 C23.91436961 22.35590295 21.06511869 19.43238402 17.9375 16.4375 C12.78710103 11.57981255 7.50227532 7.04103111 1.94921875 2.64453125 C1.30597656 2.10183594 0.66273438 1.55914062 0 1 C0 0.67 0 0.34 0 0 Z " fill="#499EF7" transform="translate(740,238)"/>
<path d="M0 0 C0.99 0 1.98 0 3 0 C1.43422952 4.80915218 -0.1976619 9.42875455 -2.5 13.9375 C-4.06732139 16.94979261 -4.06732139 16.94979261 -5 20.125 C-5.97664656 22.93285886 -7.09367708 24.74707291 -9 27 C-10.15539104 23.53382689 -9.89471012 23.13620006 -8.41796875 19.98046875 C-8.06283203 19.20509766 -7.70769531 18.42972656 -7.34179688 17.63085938 C-6.96087891 16.82455078 -6.57996094 16.01824219 -6.1875 15.1875 C-3.8617529 10.18288189 -1.61103501 5.29340075 0 0 Z " fill="#3C8BDE" transform="translate(820,499)"/>
<path d="M0 0 C0.33 0 0.66 0 1 0 C1.34197019 3.12411592 1.67192253 6.24939708 2 9.375 C2.14308594 10.68017578 2.14308594 10.68017578 2.2890625 12.01171875 C4.02539156 28.75489181 4.02539156 28.75489181 1 34 C-0.12866889 26.81917746 -0.11434249 19.75794868 -0.0625 12.5 C-0.05798828 11.29601562 -0.05347656 10.09203125 -0.04882812 8.8515625 C-0.0371195 5.90098927 -0.02071995 2.95052141 0 0 Z " fill="#13529E" transform="translate(237,504)"/>
<path d="M0 0 C6.91594601 0.1169716 12.85520272 3.64343253 18 8 C20.0625 10.875 20.0625 10.875 21 13 C18.17011379 12.0567046 16.30643386 11.328322 14.25 9.125 C9.93178551 5.04668632 3.86914365 2.75730886 -2 2 C-1.34 1.34 -0.68 0.68 0 0 Z " fill="#4F9DF0" transform="translate(845,358)"/>
<path d="M0 0 C2.59262225 0.99674343 3.79496283 1.66523252 5.265625 4.06640625 C7.52825334 9.80378526 8.81339977 14.81282798 8 21 C7.67 21.66 7.34 22.32 7 23 C7.66 23.33 8.32 23.66 9 24 C8.01 24 7.02 24 6 24 C5.855625 22.845 5.71125 21.69 5.5625 20.5 C5.46710937 19.7678125 5.37171875 19.035625 5.2734375 18.28125 C5.10154233 16.84715318 4.95683133 15.40927078 4.8515625 13.96875 C4.40707558 8.63490693 2.64542903 4.62642473 0 0 Z " fill="#519EEF" transform="translate(698,294)"/>
<path d="M0 0 C0.33 0 0.66 0 1 0 C3.42516384 11.43558027 2.5897317 21.52947437 1 33 C0.67 33 0.34 33 0 33 C0 22.11 0 11.22 0 0 Z " fill="#2F84DD" transform="translate(757,439)"/>
<path d="M0 0 C4.89812469 0.41983926 6.694081 2.52878505 10 6 C10.928125 6.556875 11.85625 7.11375 12.8125 7.6875 C13.534375 8.120625 14.25625 8.55375 15 9 C15 9.66 15 10.32 15 11 C15.5775 11.226875 16.155 11.45375 16.75 11.6875 C19.5663661 13.33038023 21.08077114 15.39533227 23 18 C22.67 18.66 22.34 19.32 22 20 C21.39414062 19.3709375 20.78828125 18.741875 20.1640625 18.09375 C15.04506724 12.86449946 9.8242192 8.06680217 4.03125 3.59375 C2 2 2 2 0 0 Z " fill="#4395EB" transform="translate(694,332)"/>
<path d="M0 0 C2.74526635 1.37263317 3.44355648 3.40592747 5 6 C5.66 6.33 6.32 6.66 7 7 C7 7.66 7 8.32 7 9 C7.721875 9.103125 8.44375 9.20625 9.1875 9.3125 C12.26019548 10.06360334 14.30203026 11.38121815 17 13 C19.69254991 13.70670728 19.69254991 13.70670728 22 14 C21.67 14.66 21.34 15.32 21 16 C11.61299307 15.06129931 6.39926155 10.89911953 0.46875 3.828125 C-0.0159375 3.22484375 -0.500625 2.6215625 -1 2 C-0.67 1.34 -0.34 0.68 0 0 Z " fill="#3D90E8" transform="translate(650,324)"/>
<path d="M0 0 C0.66 0 1.32 0 2 0 C1.42029353 8.49569832 -0.23801701 16.68875949 -2 25 C-2.66 24.34 -3.32 23.68 -4 23 C-3.9765625 20.6171875 -3.9765625 20.6171875 -3.625 17.875 C-3.51414062 16.96492188 -3.40328125 16.05484375 -3.2890625 15.1171875 C-3.19367188 14.41851562 -3.09828125 13.71984375 -3 13 C-2.34 13 -1.68 13 -1 13 C-1.01160156 12.39671875 -1.02320313 11.7934375 -1.03515625 11.171875 C-1.04869141 9.97304688 -1.04869141 9.97304688 -1.0625 8.75 C-1.07410156 7.96109375 -1.08570313 7.1721875 -1.09765625 6.359375 C-1.00385306 4.09308998 -0.63241063 2.1711105 0 0 Z " fill="#236AB6" transform="translate(263,430)"/>
<path d="M0 0 C7.05586604 3.59710818 11.31646062 7.82679173 15 15 C15 15.99 15 16.98 15 18 C17.97 18 20.94 18 24 18 C24 18.33 24 18.66 24 19 C20.7 19 17.4 19 14 19 C11 13.25 11 13.25 11 11 C10.34 11 9.68 11 9 11 C8.5978125 10.0409375 8.5978125 10.0409375 8.1875 9.0625 C7.11332248 6.66868314 7.11332248 6.66868314 4 6 C4 5.34 4 4.68 4 4 C2.68 3.34 1.36 2.68 0 2 C0 1.34 0 0.68 0 0 Z " fill="#57A3F6" transform="translate(567,149)"/>
<path d="M0 0 C10.23 0 20.46 0 31 0 C31 0.33 31 0.66 31 1 C20.18795603 2.57751483 10.76537383 3.47261236 0 1 C0 0.67 0 0.34 0 0 Z " fill="#519DEC" transform="translate(564,277)"/>
<path d="M0 0 C0.33 0 0.66 0 1 0 C1.41544305 8.03189893 -0.18236011 15.20204234 -2 23 C-2.34060811 24.66519519 -2.67692734 26.33131401 -3 28 C-3.33 28 -3.66 28 -4 28 C-4.33682128 21.82494321 -3.6415512 16.12443501 -2.5625 10.0625 C-2.360802 8.92566772 -2.360802 8.92566772 -2.1550293 7.76586914 C-1.14021308 2.28042616 -1.14021308 2.28042616 0 0 Z " fill="#195FAD" transform="translate(245,436)"/>
<path d="M0 0 C3.4087928 1.3984791 4.87393835 2.85006933 6.75 6 C7.17796875 6.70125 7.6059375 7.4025 8.046875 8.125 C9 10 9 10 9 12 C9.99 12.33 10.98 12.66 12 13 C12 14.32 12 15.64 12 17 C12.66 17 13.32 17 14 17 C14.33 19.31 14.66 21.62 15 24 C12.52970706 20.87096228 10.57765074 17.59736082 8.625 14.125 C6.63112906 10.65371726 4.69020428 7.39948013 2.0625 4.375 C0 2 0 2 0 0 Z " fill="#3B8BE0" transform="translate(670,385)"/>
<path d="M0 0 C1 3 1 3 0.5 4.875 C-0.60502558 9.57135873 1.67612198 14.49881472 3 19 C3.66 19 4.32 19 5 19 C5 19.66 5 20.32 5 21 C3.109375 20.74609375 3.109375 20.74609375 1 20 C-2.48670368 14.2885712 -2.36435295 7.46389131 -2 1 C-1.34 0.67 -0.68 0.34 0 0 Z " fill="#4696EB" transform="translate(813,381)"/>
<path d="M0 0 C-0.33 0.66 -0.66 1.32 -1 2 C-2.99005807 2.38830401 -4.9935269 2.70814937 -7 3 C-8.33685154 3.31893079 -9.67019149 3.65287148 -11 4 C-14.31238019 4.8535749 -17.61472596 5.49220889 -21 6 C-20.67 5.01 -20.34 4.02 -20 3 C-17.36573867 2.08321753 -14.89084152 1.37439384 -12.1875 0.75 C-11.46240234 0.564375 -10.73730469 0.37875 -9.99023438 0.1875 C-6.27681727 -0.70942783 -3.64338714 -1.12259812 0 0 Z " fill="#4795E6" transform="translate(539,282)"/>
<path d="M0 0 C-3.37698788 2.04173535 -5.94546223 2.23525039 -9.859375 2.1953125 C-10.97441406 2.18886719 -12.08945312 2.18242187 -13.23828125 2.17578125 C-14.39714844 2.15902344 -15.55601562 2.14226562 -16.75 2.125 C-17.92433594 2.11597656 -19.09867188 2.10695313 -20.30859375 2.09765625 C-23.20593536 2.07410063 -26.10286441 2.04120652 -29 2 C-29 1.67 -29 1.34 -29 1 C-25.85586292 0.62959481 -22.70959963 0.28174872 -19.5625 -0.0625 C-18.24475586 -0.2181543 -18.24475586 -0.2181543 -16.90039062 -0.37695312 C-11.04961982 -1.00305037 -5.82567137 -0.84747813 0 0 Z " fill="#3289E3" transform="translate(591,294)"/>
<path d="M0 0 C0.33 0 0.66 0 1 0 C1.30470113 9.44573505 0.14169926 18.6421436 -1 28 C-1.33 28 -1.66 28 -2 28 C-2.19456705 26.04235617 -2.38044247 24.08384679 -2.5625 22.125 C-2.71912109 20.48917969 -2.71912109 20.48917969 -2.87890625 18.8203125 C-3 16 -3 16 -2 14 C-1.61076473 11.63049479 -1.2619422 9.2542428 -0.9375 6.875 C-0.76089844 5.59367187 -0.58429688 4.31234375 -0.40234375 2.9921875 C-0.26957031 2.00476563 -0.13679688 1.01734375 0 0 Z " fill="#185DAC" transform="translate(258,463)"/>
<path d="M0 0 C0.33 0.66 0.66 1.32 1 2 C0.01196289 4.43017578 0.01196289 4.43017578 -1.52734375 7.4453125 C-2.34428711 9.05986328 -2.34428711 9.05986328 -3.17773438 10.70703125 C-3.75845703 11.83496094 -4.33917969 12.96289062 -4.9375 14.125 C-5.51435547 15.26066406 -6.09121094 16.39632813 -6.68554688 17.56640625 C-8.1166459 20.38129523 -9.55505865 23.1921983 -11 26 C-12 23 -12 23 -11.0390625 20.6953125 C-10.57242187 19.84710938 -10.10578125 18.99890625 -9.625 18.125 C-7.74851026 14.69699918 -6.71113727 11.83223976 -6 8 C-4.625 6.5 -4.625 6.5 -3 5 C-1.96642853 3.35394174 -0.95939668 1.69036558 0 0 Z " fill="#2370C2" transform="translate(297,343)"/>
<path d="M0 0 C4.89157798 1.2228945 7.34618634 2.6477456 10 7 C9.67 7.99 9.34 8.98 9 10 C8.77439324 12.39254576 8.59151405 14.78928123 8.4375 17.1875 C8.35371094 18.45980469 8.26992188 19.73210937 8.18359375 21.04296875 C8.12300781 22.01878906 8.06242188 22.99460937 8 24 C7.67 24 7.34 24 7 24 C7 17.73 7 11.46 7 5 C5.02 4.34 3.04 3.68 1 3 C0.67 2.01 0.34 1.02 0 0 Z " fill="#559EEA" transform="translate(825,410)"/>
<path d="M0 0 C2.47830334 0.36808749 3.6746419 0.59789362 5.28027344 2.58227539 C5.63637695 3.24735107 5.99248047 3.91242676 6.359375 4.59765625 C6.75253906 5.31630859 7.14570312 6.03496094 7.55078125 6.77539062 C7.94652344 7.53013672 8.34226562 8.28488281 8.75 9.0625 C9.16121094 9.82111328 9.57242188 10.57972656 9.99609375 11.36132812 C11.00926383 13.23451468 12.0062056 15.11646233 13 17 C12.34 17.66 11.68 18.32 11 19 C10.67 17.35 10.34 15.7 10 14 C9.34 14 8.68 14 8 14 C7.67 12.35 7.34 10.7 7 9 C6.34 9 5.68 9 5 9 C4.67 7.35 4.34 5.7 4 4 C3.34 4 2.68 4 2 4 C2 3.01 2 2.02 2 1 C1.34 0.67 0.68 0.34 0 0 Z " fill="#3F90E4" transform="translate(689,383)"/>
<path d="M0 0 C0.99 0 1.98 0 3 0 C2.96519531 1.08667969 2.96519531 1.08667969 2.9296875 2.1953125 C2.82981206 7.54578244 2.83544252 11.99446082 5 17 C4.01 16.67 3.02 16.34 2 16 C-0.52167512 10.82393002 -0.19972232 5.61441624 0 0 Z " fill="#549EED" transform="translate(645,306)"/>
<path d="M0 0 C1.66666667 1.66666667 3.33333333 3.33333333 5 5 C5.928125 5.845625 6.85625 6.69125 7.8125 7.5625 C10 10 10 10 10 14 C10.66 14 11.32 14 12 14 C12.99 16.31 13.98 18.62 15 21 C14.34 21.33 13.68 21.66 13 22 C12.39671875 20.97519531 11.7934375 19.95039063 11.171875 18.89453125 C10.36478262 17.53373595 9.55747978 16.17306546 8.75 14.8125 C8.35425781 14.13896484 7.95851563 13.46542969 7.55078125 12.77148438 C5.73375926 9.71829169 3.93273559 6.91614828 1.703125 4.13671875 C0 2 0 2 0 0 Z " fill="#3C90E7" transform="translate(724,360)"/>
<path d="M0 0 C-3 2 -3 2 -5.80078125 2.4609375 C-10.32469173 3.22320813 -14.13945982 5.14777919 -18.29296875 7.0390625 C-21 8 -21 8 -24 7 C-20.55053718 4.70035812 -16.97165774 3.2853194 -13.125 1.8125 C-12.41730469 1.52697266 -11.70960938 1.24144531 -10.98046875 0.94726562 C-6.95137537 -0.59459413 -4.2640076 -1.44641827 0 0 Z " fill="#4393E8" transform="translate(470,183)"/>
<path d="M0 0 C5.12430976 -0.2091555 9.10723658 0.55029232 14 2 C16.79244045 2.16928543 16.79244045 2.16928543 19 2 C19 2.99 19 3.98 19 5 C12.23784552 4.59060025 6.32837252 3.43046191 0 1 C0 0.67 0 0.34 0 0 Z " fill="#113E79" transform="translate(408,782)"/>
<path d="M0 0 C0.66 0.33 1.32 0.66 2 1 C1.16855469 2.12148438 1.16855469 2.12148438 0.3203125 3.265625 C-0.40414062 4.25046875 -1.12859375 5.2353125 -1.875 6.25 C-2.95394531 7.71179688 -2.95394531 7.71179688 -4.0546875 9.203125 C-5.60982225 11.43902154 -6.88204223 13.52872493 -8 16 C-8.66 15.34 -9.32 14.68 -10 14 C-7.3650056 8.12193556 -4.76515136 4.33195579 0 0 Z " fill="#4B9AED" transform="translate(822,364)"/>
<path d="M0 0 C0.33 0.66 0.66 1.32 1 2 C1.66 2 2.32 2 3 2 C2.67 9.92 2.34 17.84 2 26 C1.67 26 1.34 26 1 26 C0.67 17.42 0.34 8.84 0 0 Z " fill="#1C5B9A" transform="translate(330,642)"/>
<path d="M0 0 C0.33 0 0.66 0 1 0 C1.36256858 1.4562672 1.71479793 2.91511185 2.0625 4.375 C2.35833984 5.59316406 2.35833984 5.59316406 2.66015625 6.8359375 C3 9 3 9 2 11 C9.26 11 16.52 11 24 11 C24 11.33 24 11.66 24 12 C16.41 12 8.82 12 1 12 C-0.07396066 7.70415737 -0.07329796 4.39787789 0 0 Z " fill="#084391" transform="translate(239,541)"/>
<path d="M0 0 C3 1 3 1 4.6875 3.6875 C7.00939511 9.44386496 6.22779743 15.91696494 6 22 C5.34 22 4.68 22 4 22 C4 17.05 4 12.1 4 7 C3.34 7 2.68 7 2 7 C1.7834375 5.824375 1.7834375 5.824375 1.5625 4.625 C1.12201075 2.03578982 1.12201075 2.03578982 0 0 Z " fill="#4396EE" transform="translate(865,372)"/>
<path d="M0 0 C3.62299006 1.46512125 5.28690104 3.36405154 7.5625 6.5 C9.65818386 9.37514757 10.99811934 10.99874622 14 13 C14 13.99 14 14.98 14 16 C14.99 16.33 15.98 16.66 17 17 C17 17.66 17 18.32 17 19 C12.43429255 17.43121427 10.17394082 13.7632386 7.375 10.0625 C6.64023437 9.11213867 6.64023437 9.11213867 5.890625 8.14257812 C3.83538099 5.47244554 1.87048417 2.80572626 0 0 Z " fill="#489CF5" transform="translate(770,266)"/>
<path d="M0 0 C2.50069357 4.3869926 3.19637492 9.10872991 4.21875 14.00390625 C4.86537408 17.15210539 4.86537408 17.15210539 7 20 C6.34 21.32 5.68 22.64 5 24 C1.93393177 15.95691869 0.30524534 8.60791872 0 0 Z " fill="#206DBE" transform="translate(455,510)"/>
<path d="M0 0 C0.66 0.33 1.32 0.66 2 1 C0.54462432 1.83848804 -0.91440373 2.67063934 -2.375 3.5 C-3.59316406 4.19609375 -3.59316406 4.19609375 -4.8359375 4.90625 C-7 6 -7 6 -9 6 C-9 6.66 -9 7.32 -9 8 C-12.96 9.98 -12.96 9.98 -17 12 C-17 11.01 -17 10.02 -17 9 C-14.21526125 7.46621464 -11.42121662 5.9502442 -8.625 4.4375 C-7.8309375 3.99986328 -7.036875 3.56222656 -6.21875 3.11132812 C-5.45820312 2.70205078 -4.69765625 2.29277344 -3.9140625 1.87109375 C-2.8614624 1.29766235 -2.8614624 1.29766235 -1.78759766 0.71264648 C-1.19769043 0.47747314 -0.6077832 0.2422998 0 0 Z " fill="#3586DB" transform="translate(533,348)"/>
<path d="M0 0 C0.69738281 0.19529297 1.39476562 0.39058594 2.11328125 0.59179688 C3.82798973 1.0733246 5.53934877 1.56675157 7.25 2.0625 C7.25 3.0525 7.25 4.0425 7.25 5.0625 C0.64584986 3.68296642 -5.75881938 2.28852033 -11.75 -0.9375 C-7.65913548 -2.61391098 -4.03488982 -1.1784319 0 0 Z " fill="#184783" transform="translate(417.75,765.9375)"/>
<path d="M0 0 C0.99 0 1.98 0 3 0 C2.38001532 5.88985442 1.68282672 11.63434656 -1 17 C-1.66 17 -2.32 17 -3 17 C-2.86722656 16.27554687 -2.73445312 15.55109375 -2.59765625 14.8046875 C-1.69718291 9.87508895 -0.80218034 4.94677877 0 0 Z " fill="#4894E4" transform="translate(828,467)"/>
<path d="M0 0 C1.89600369 0.31146472 3.79179587 0.62421717 5.6875 0.9375 C6.74324219 1.11152344 7.79898438 1.28554688 8.88671875 1.46484375 C11.60249604 1.93167121 14.30124235 2.44422616 17 3 C17.33 3.99 17.66 4.98 18 6 C17.01 6 16.02 6 15 6 C15 5.34 15 4.68 15 4 C14.37351562 4.01160156 13.74703125 4.02320313 13.1015625 4.03515625 C12.28429687 4.04417969 11.46703125 4.05320312 10.625 4.0625 C9.81289063 4.07410156 9.00078125 4.08570313 8.1640625 4.09765625 C6 4 6 4 4 3 C2.33805547 2.64386903 0.671549 2.30791692 -1 2 C-0.67 1.34 -0.34 0.68 0 0 Z " fill="#4B9AED" transform="translate(617,280)"/>
<path d="M0 0 C1.79232337 0.30871122 3.58384321 0.62209064 5.375 0.9375 C6.87160156 1.19853516 6.87160156 1.19853516 8.3984375 1.46484375 C11 2 11 2 13 3 C13.66 2.34 14.32 1.68 15 1 C15 2.32 15 3.64 15 5 C9.63108121 4.50130596 4.30764827 3.97772468 -1 3 C-0.67 2.01 -0.34 1.02 0 0 Z " fill="#4C96E5" transform="translate(609,351)"/>
<path d="M0 0 C7.75 -0.125 7.75 -0.125 10 1 C10.99 0.979375 11.98 0.95875 13 0.9375 C16 1 16 1 18 3 C13.27982697 4.37037282 8.75396181 4.03771181 4 3 C1.4375 1.4375 1.4375 1.4375 0 0 Z " fill="#4D99EA" transform="translate(594,294)"/>
<path d="M0 0 C3.86902666 3.34962308 4.29547403 7.10071023 5 12 C5.13361545 14.36628645 5.10094731 16.62773818 5 19 C3.19523895 15.74358332 2.26051195 12.54663205 1.375 8.9375 C1.11460937 7.89464844 0.85421875 6.85179687 0.5859375 5.77734375 C0 3 0 3 0 0 Z " fill="#1857A0" transform="translate(325,583)"/>
<path d="M0 0 C0.33 0 0.66 0 1 0 C0.85811015 2.54194161 0.71160845 5.08347993 0.5625 7.625 C0.50352539 8.69427734 0.50352539 8.69427734 0.44335938 9.78515625 C0.19690319 13.91803682 -0.23470053 17.92269024 -1 22 C-3.29404844 18.55892734 -3.26293056 17.03160191 -3 13 C-2.67 12.67 -2.34 12.34 -2 12 C-1.60430892 9.98688551 -1.25747809 7.96402792 -0.9375 5.9375 C-0.67259766 4.28041016 -0.67259766 4.28041016 -0.40234375 2.58984375 C-0.26957031 1.73519531 -0.13679688 0.88054687 0 0 Z " fill="#1B66B8" transform="translate(371,480)"/>
<path d="M0 0 C0.76849965 2.25542675 1.15628879 3.53906176 0.37915039 5.83105469 C0.03875732 6.43852539 -0.30163574 7.04599609 -0.65234375 7.671875 C-1.01650391 8.33574219 -1.38066406 8.99960937 -1.75585938 9.68359375 C-2.14580078 10.36550781 -2.53574219 11.04742187 -2.9375 11.75 C-3.32357422 12.44738281 -3.70964844 13.14476562 -4.10742188 13.86328125 C-5.06073637 15.5816012 -6.02895346 17.29163804 -7 19 C-8 16 -8 16 -7.37915039 14.19067383 C-7.03875732 13.53607178 -6.69836426 12.88146973 -6.34765625 12.20703125 C-5.98349609 11.49482422 -5.61933594 10.78261719 -5.24414062 10.04882812 C-4.85419922 9.31083984 -4.46425781 8.57285156 -4.0625 7.8125 C-3.48338867 6.68811523 -3.48338867 6.68811523 -2.89257812 5.54101562 C-1.93728243 3.68939311 -0.96978423 1.84407548 0 0 Z " fill="#2570C0" transform="translate(277,343)"/>
<path d="M0 0 C4.00142018 1.33380673 4.50071288 3.0671265 6.5625 6.6875 C7.16191406 7.72261719 7.76132812 8.75773437 8.37890625 9.82421875 C9.91893378 12.84118835 11.02423729 15.76202126 12 19 C11.34 19 10.68 19 10 19 C8.52045925 16.20853144 7.04143134 13.41679148 5.5625 10.625 C5.14162109 9.8309375 4.72074219 9.036875 4.28710938 8.21875 C3.88427734 7.45820313 3.48144531 6.69765625 3.06640625 5.9140625 C2.69459229 5.2123291 2.32277832 4.5105957 1.93969727 3.78759766 C1.27968252 2.53204349 0.63435569 1.26871138 0 0 Z " fill="#4599F2" transform="translate(796,301)"/>
<path d="M0 0 C0.33 0.99 0.66 1.98 1 3 C9.91 3 18.82 3 28 3 C28 3.33 28 3.66 28 4 C18.76 4.33 9.52 4.66 0 5 C-0.33 4.34 -0.66 3.68 -1 3 C-0.67 2.01 -0.34 1.02 0 0 Z " fill="#3474B2" transform="translate(256,531)"/>
<path d="M0 0 C-6.05273518 3.13845528 -11.23043316 4.43955656 -18 5 C-18 4.34 -18 3.68 -18 3 C-16.12743583 2.49095343 -14.25180659 1.99317545 -12.375 1.5 C-11.33085938 1.2215625 -10.28671875 0.943125 -9.2109375 0.65625 C-6.04312582 0.00881404 -3.22258533 -0.1161292 0 0 Z " fill="#398AE0" transform="translate(575,336)"/>
<path d="M0 0 C0.99 0 1.98 0 3 0 C3.62457273 3.43515002 4 6.49064814 4 10 C4.66 10 5.32 10 6 10 C5.67 12.31 5.34 14.62 5 17 C3.03470991 13.54792524 2.2253523 10.11523774 1.375 6.25 C1.11460937 5.07953125 0.85421875 3.9090625 0.5859375 2.703125 C0.39257812 1.81109375 0.19921875 0.9190625 0 0 Z " fill="#2267B3" transform="translate(408,565)"/>
<path d="M0 0 C0.8971875 0.5259375 0.8971875 0.5259375 1.8125 1.0625 C-0.30959776 1.75890673 -2.43528527 2.44438357 -4.5625 3.125 C-6.33753906 3.69927734 -6.33753906 3.69927734 -8.1484375 4.28515625 C-11.1875 5.0625 -11.1875 5.0625 -13.1875 4.0625 C-11.917947 3.41415346 -10.64680294 2.76892185 -9.375 2.125 C-8.66730469 1.76535156 -7.95960938 1.40570313 -7.23046875 1.03515625 C-2.66092995 -1.14039855 -2.66092995 -1.14039855 0 0 Z " fill="#408DDF" transform="translate(552.1875,341.9375)"/>
<path d="M0 0 C1.98 0 3.96 0 6 0 C6.33 0.66 6.66 1.32 7 2 C4.29283758 2.90238747 2.76223232 3.11851302 -0.01171875 3.09765625 C-1.14770508 3.09282227 -1.14770508 3.09282227 -2.30664062 3.08789062 C-3.09232422 3.07951172 -3.87800781 3.07113281 -4.6875 3.0625 C-5.48478516 3.05798828 -6.28207031 3.05347656 -7.10351562 3.04882812 C-9.06904257 3.0370585 -11.03453085 3.01912348 -13 3 C-13 2.67 -13 2.34 -13 2 C-8.71 2 -4.42 2 0 2 C0 1.34 0 0.68 0 0 Z " fill="#216FC1" transform="translate(640,615)"/>
<path d="M0 0 C0.99 0 1.98 0 3 0 C6 4.22222222 6 4.22222222 6 7 C6.66 7 7.32 7 8 7 C8.33 8.65 8.66 10.3 9 12 C9.66 12 10.32 12 11 12 C11 12.66 11 13.32 11 14 C6.93248796 12.64416265 6.11885069 10.56245061 3.8125 7 C3.09707031 5.906875 2.38164063 4.81375 1.64453125 3.6875 C0 1 0 1 0 0 Z " fill="#4C9DF4" transform="translate(786,286)"/>
<path d="M0 0 C1.85064319 3.12296038 2.29356154 5.37940768 2 9 C1.67 9.33 1.34 9.66 1 10 C0.63239269 12.32817964 0.29758419 14.6618385 0 17 C-0.33 17 -0.66 17 -1 17 C-1.02699725 14.72923158 -1.04639453 12.45837179 -1.0625 10.1875 C-1.07990234 8.29064453 -1.07990234 8.29064453 -1.09765625 6.35546875 C-1 3 -1 3 0 0 Z " fill="#2164AE" transform="translate(240,465)"/>
<path d="M0 0 C4.29 1.65 8.58 3.3 13 5 C13 5.66 13 6.32 13 7 C10.03 6.505 10.03 6.505 7 6 C7 5.34 7 4.68 7 4 C6.236875 4.061875 5.47375 4.12375 4.6875 4.1875 C2 4 2 4 0.1875 2.5 C-0.4003125 1.7575 -0.4003125 1.7575 -1 1 C-0.67 0.67 -0.34 0.34 0 0 Z " fill="#4292E7" transform="translate(635,340)"/>
<path d="M0 0 C0 0.66 0 1.32 0 2 C-3.96 2.99 -7.92 3.98 -12 5 C-12 4.34 -12 3.68 -12 3 C-11.34 3 -10.68 3 -10 3 C-10 2.34 -10 1.68 -10 1 C-6.61981469 -0.04005702 -3.5219721 -0.08004482 0 0 Z " fill="#4D98E8" transform="translate(552,279)"/>
<path d="M0 0 C0.66 0.33 1.32 0.66 2 1 C1 3 1 3 -1.87109375 4.0703125 C-3.04800781 4.41835937 -4.22492188 4.76640625 -5.4375 5.125 C-7.19900391 5.65480469 -7.19900391 5.65480469 -8.99609375 6.1953125 C-12 7 -12 7 -14 7 C-14 6.34 -14 5.68 -14 5 C-13.40832031 4.80664062 -12.81664062 4.61328125 -12.20703125 4.4140625 C-8.77305494 3.28247487 -5.39149191 2.1665923 -2.0625 0.75 C-1.381875 0.5025 -0.70125 0.255 0 0 Z " fill="#3F91E8" transform="translate(482,195)"/>
<path d="M0 0 C1.75471386 0.90761062 3.50359264 1.82650711 5.25 2.75 C6.22453125 3.26046875 7.1990625 3.7709375 8.203125 4.296875 C10.91493199 5.94819881 12.86796403 7.66491299 15 10 C9.32765742 8.28510573 4.52660206 5.85599434 0 2 C0 1.34 0 0.68 0 0 Z " fill="#3A8DE5" transform="translate(651,347)"/>
<path d="M0 0 C0.99 0.66 1.98 1.32 3 2 C1.06532058 2.83986084 -0.87285129 3.67168027 -2.8125 4.5 C-4.43091797 5.19609375 -4.43091797 5.19609375 -6.08203125 5.90625 C-9 7 -9 7 -12 7 C-9.74229955 4.48903187 -7.56355778 3.09163065 -4.5 1.6875 C-3.7265625 1.32011719 -2.953125 0.95273437 -2.15625 0.57421875 C-1.4446875 0.38472656 -0.733125 0.19523437 0 0 Z " fill="#3B8BE0" transform="translate(495,293)"/>
<path d="M0 0 C7.425 0.99 7.425 0.99 15 2 C15 2.33 15 2.66 15 3 C10.05 3 5.1 3 0 3 C0 2.01 0 1.02 0 0 Z " fill="#3082D8" transform="translate(596,412)"/>
<path d="M0 0 C4.97306516 0.49730652 8.63799813 1.55302334 13 4 C9.72814447 5.07310858 7.57052408 4.89263102 4.25 4.0625 C3.45078125 3.86785156 2.6515625 3.67320312 1.828125 3.47265625 C1.22484375 3.31667969 0.6215625 3.16070312 0 3 C0 2.01 0 1.02 0 0 Z " fill="#57A5F7" transform="translate(634,189)"/>
<path d="M0 0 C4 1.33333333 8 2.66666667 12 4 C11.67 4.66 11.34 5.32 11 6 C7.0507432 5.44894091 3.65079826 4.61064629 0 3 C0 2.01 0 1.02 0 0 Z " fill="#4B98EB" transform="translate(660,334)"/>
<path d="M0 0 C0.56203125 0.36867187 1.1240625 0.73734375 1.703125 1.1171875 C0.1064055 1.84215208 -1.49960108 2.54669147 -3.109375 3.2421875 C-4.00269531 3.63664063 -4.89601563 4.03109375 -5.81640625 4.4375 C-6.63496094 4.66179687 -7.45351563 4.88609375 -8.296875 5.1171875 C-9.286875 4.4571875 -10.276875 3.7971875 -11.296875 3.1171875 C-9.88995893 2.38967962 -8.47081478 1.68578397 -7.046875 0.9921875 C-6.25796875 0.59773437 -5.4690625 0.20328125 -4.65625 -0.203125 C-2.296875 -0.8828125 -2.296875 -0.8828125 0 0 Z " fill="#4492E6" transform="translate(438.296875,193.8828125)"/>
<path d="M0 0 C-3.22515763 1.73662334 -6.51329166 2.8905928 -10 4 C-10 3.34 -10 2.68 -10 2 C-10.66 1.67 -11.32 1.34 -12 1 C-3.96428571 -1.27678571 -3.96428571 -1.27678571 0 0 Z " fill="#529DED" transform="translate(490,177)"/>
<path d="M0 0 C2 2 2 2 2.25 4.25 C1.96379343 7.39827227 1.09940961 10.04533667 0 13 C-0.33 13 -0.66 13 -1 13 C-1.02696365 11.20841511 -1.04637917 9.41671527 -1.0625 7.625 C-1.07410156 6.62726563 -1.08570313 5.62953125 -1.09765625 4.6015625 C-1 2 -1 2 0 0 Z " fill="#2A70BC" transform="translate(354,477)"/>
<path d="M0 0 C0.66 0 1.32 0 2 0 C2.46192125 4.92715996 0.8275283 8.50732625 -1 13 C-1.33 13 -1.66 13 -2 13 C-1.85851011 11.3954444 -1.71164314 9.79136233 -1.5625 8.1875 C-1.48128906 7.29417969 -1.40007812 6.40085937 -1.31640625 5.48046875 C-1 3 -1 3 0 0 Z " fill="#226CBD" transform="translate(357,462)"/>
<path d="M0 0 C5.01113235 1.4317521 6.94469549 3.98445693 10 8 C9.67 8.66 9.34 9.32 9 10 C7.49702124 8.52386015 5.99768715 7.04400843 4.5 5.5625 C3.6646875 4.73878906 2.829375 3.91507812 1.96875 3.06640625 C0 1 0 1 0 0 Z " fill="#388EE9" transform="translate(707,342)"/>
<path d="M0 0 C-3.50538557 1.96301592 -7.13351728 2.95902388 -11 4 C-11 3.34 -11 2.68 -11 2 C-11.66 1.67 -12.32 1.34 -13 1 C-11.58622218 0.63447197 -10.16879424 0.28304505 -8.75 -0.0625 C-7.96109375 -0.25972656 -7.1721875 -0.45695313 -6.359375 -0.66015625 C-3.89605178 -1.01497267 -2.34395868 -0.76877544 0 0 Z " fill="#4D9AED" transform="translate(503,174)"/>
<path d="M0 0 C0.33 0 0.66 0 1 0 C1.18451025 9.41002278 1.18451025 9.41002278 0 14 C-1.53508028 11.56661348 -2.03088304 10.32875493 -1.7578125 7.421875 C-1.54898438 6.54015625 -1.34015625 5.6584375 -1.125 4.75 C-0.92132813 3.85796875 -0.71765625 2.9659375 -0.5078125 2.046875 C-0.34023437 1.37140625 -0.17265625 0.6959375 0 0 Z " fill="#296BB5" transform="translate(245,436)"/>
<path d="M0 0 C0.66 0.66 1.32 1.32 2 2 C-4.4 5.07692308 -4.4 5.07692308 -7.4375 4.6875 C-7.953125 4.460625 -8.46875 4.23375 -9 4 C-6.01353231 2.00902154 -3.40312738 1.05875074 0 0 Z " fill="#4190E2" transform="translate(509,288)"/>
<path d="M0 0 C0 0.33 0 0.66 0 1 C-8.42857143 2.28571429 -8.42857143 2.28571429 -13 1 C-7.60900283 -1.69549858 -5.99981796 -1.88883158 0 0 Z " fill="#1B4B83" transform="translate(438,787)"/>
<path d="M0 0 C4.84659077 0.59104765 8.60748167 1.97944157 13 4 C9.75784173 5.08557659 7.97678191 4.94015194 4.8125 3.6875 C3.77029297 3.29111328 3.77029297 3.29111328 2.70703125 2.88671875 C1 2 1 2 0 0 Z " fill="#165299" transform="translate(459,704)"/>
<path d="M0 0 C1.23593891 3.70781672 0.5678132 4.67510253 -0.9375 8.1875 C-1.31777344 9.08855469 -1.69804688 9.98960937 -2.08984375 10.91796875 C-2.54037109 11.94857422 -2.54037109 11.94857422 -3 13 C-3.66 12.01 -4.32 11.02 -5 10 C-3.35 6.7 -1.7 3.4 0 0 Z " fill="#3684D6" transform="translate(688,475)"/>
<path d="M0 0 C2.60334924 2.71182212 2.99456691 3.89133813 3.1875 7.75 C3.125625 8.8225 3.06375 9.895 3 11 C2.34 11 1.68 11 1 11 C-1.125 3.375 -1.125 3.375 0 0 Z " fill="#4492E5" transform="translate(752,412)"/>
<path d="M0 0 C1 2 1 2 0.25 5.5 C-1 9 -1 9 -4 11 C-3.48964169 6.6109185 -2.47785723 3.66291938 0 0 Z " fill="#246FBD" transform="translate(268,363)"/>
<path d="M0 0 C1.90318884 2.85478326 2.4619099 4.41941308 3.125 7.6875 C3.29257812 8.49574219 3.46015625 9.30398438 3.6328125 10.13671875 C3.75398437 10.75160156 3.87515625 11.36648438 4 12 C3.01 12.495 3.01 12.495 2 13 C0.54815522 8.46298506 -0.23509196 4.81938524 0 0 Z " fill="#4C9DF1" transform="translate(835,339)"/>
<path d="M0 0 C9.41002278 -0.18451025 9.41002278 -0.18451025 14 1 C10.70901716 3.19398856 10.15167419 3.21503664 6.4375 2.75 C5.65246094 2.66234375 4.86742187 2.5746875 4.05859375 2.484375 C2 2 2 2 0 0 Z " fill="#3C91EB" transform="translate(603,279)"/>
<path d="M0 0 C2 2 2 2 2.3125 4.875 C1.96732652 8.32673483 1.14126508 9.38980351 -1 12 C-1.02687279 10.18757948 -1.04633715 8.37504767 -1.0625 6.5625 C-1.07410156 5.55316406 -1.08570313 4.54382813 -1.09765625 3.50390625 C-1 1 -1 1 0 0 Z " fill="#3776B6" transform="translate(255,489)"/>
<path d="M0 0 C3.3 0.99 6.6 1.98 10 3 C10 3.66 10 4.32 10 5 C6.7 4.34 3.4 3.68 0 3 C0 2.01 0 1.02 0 0 Z " fill="#4C99EA" transform="translate(628,299)"/>
<path d="M0 0 C0.80050781 0.12761719 1.60101562 0.25523437 2.42578125 0.38671875 C3.23402344 0.50660156 4.04226563 0.62648438 4.875 0.75 C5.48988281 0.85699219 6.10476563 0.96398437 6.73828125 1.07421875 C3.83871515 2.73297954 1.82192916 3.31034035 -1.51171875 3.19921875 C-3.36796875 3.13734375 -3.36796875 3.13734375 -5.26171875 3.07421875 C-3.53640014 0.90221572 -2.83921072 0.09316926 0 0 Z " fill="#4594E6" transform="translate(584.26171875,292.92578125)"/>
<path d="M0 0 C0.66 0 1.32 0 2 0 C1.46884894 4.51478398 -0.36620292 7.34666857 -3 11 C-4 8 -4 8 -3.22265625 5.95703125 C-2.83980469 5.24933594 -2.45695313 4.54164063 -2.0625 3.8125 C-1.68222656 3.09707031 -1.30195312 2.38164062 -0.91015625 1.64453125 C-0.60980469 1.10183594 -0.30945313 0.55914062 0 0 Z " fill="#4599F3" transform="translate(579,185)"/>
<path d="M0 0 C4.90567888 -0.28301994 7.24528933 -0.16492205 11 3 C9.35333797 2.8864371 7.70763918 2.75882619 6.0625 2.625 C5.14597656 2.55539062 4.22945313 2.48578125 3.28515625 2.4140625 C2.15400391 2.20910156 2.15400391 2.20910156 1 2 C0.67 1.34 0.34 0.68 0 0 Z " fill="#1B589D" transform="translate(473,709)"/>
<path d="M0 0 C2.72426311 2.35277269 3.8141763 4.62496331 5 8 C4.34 8.66 3.68 9.32 3 10 C0.96564469 6.27034861 0 4.33094958 0 0 Z " fill="#2563A8" transform="translate(434,658)"/>
<path d="M0 0 C-0.66 0 -1.32 0 -2 0 C-2 0.66 -2 1.32 -2 2 C-4.31 2.33 -6.62 2.66 -9 3 C-9.33 2.34 -9.66 1.68 -10 1 C-3.71428571 -1.42857143 -3.71428571 -1.42857143 0 0 Z " fill="#529EEE" transform="translate(516,189)"/>
<path d="M0 0 C0.79921875 0.19464844 1.5984375 0.38929688 2.421875 0.58984375 C3.32679688 0.82380859 3.32679688 0.82380859 4.25 1.0625 C4.25 1.3925 4.25 1.7225 4.25 2.0625 C0.29 2.0625 -3.67 2.0625 -7.75 2.0625 C-8.08 1.4025 -8.41 0.7425 -8.75 0.0625 C-5.47814447 -1.01060858 -3.32052408 -0.83013102 0 0 Z " fill="#10529E" transform="translate(286.75,550.9375)"/>
<path d="M0 0 C0.99 0 1.98 0 3 0 C2.67 3.96 2.34 7.92 2 12 C1.67 12 1.34 12 1 12 C0.67 8.04 0.34 4.08 0 0 Z " fill="#4A8CD3" transform="translate(559,484)"/>
<path d="M0 0 C1.60080151 4.00200378 0.29279692 7.04556236 -1 11 C-1.66 11 -2.32 11 -3 11 C-2.32829194 7.1936543 -1.27253436 3.64793184 0 0 Z " fill="#1F6DC0" transform="translate(377,453)"/>
<path d="M0 0 C0.66 0.33 1.32 0.66 2 1 C-0.38957269 4.24299151 -2.2047869 6.50902342 -6 8 C-4.55746343 4.63408134 -2.66735273 2.48952921 0 0 Z " fill="#3F93ED" transform="translate(822,364)"/>
<path d="M0 0 C0.66 0.66 1.32 1.32 2 2 C0.35 3.32 -1.3 4.64 -3 6 C-3 3 -3 3 -1.5 1.3125 C-0.7575 0.6628125 -0.7575 0.6628125 0 0 Z " fill="#428BD6" transform="translate(420,343)"/>
<path d="M0 0 C0.33 0.66 0.66 1.32 1 2 C0.22265625 4.1640625 0.22265625 4.1640625 -0.9375 6.625 C-1.31777344 7.44226563 -1.69804687 8.25953125 -2.08984375 9.1015625 C-2.39019531 9.72804688 -2.69054687 10.35453125 -3 11 C-3.66 11 -4.32 11 -5 11 C-3.77472971 6.94718288 -2.30119506 3.55639236 0 0 Z " fill="#1E6DC1" transform="translate(283,332)"/>
<path d="M0 0 C2.64 0.66 5.28 1.32 8 2 C7.67 2.99 7.34 3.98 7 5 C6.4225 4.690625 5.845 4.38125 5.25 4.0625 C3.15705816 3.07416636 1.25464725 2.4831387 -1 2 C-0.67 1.34 -0.34 0.68 0 0 Z " fill="#4D9EF2" transform="translate(680,282)"/>
<path d="M0 0 C1.9955516 3.99110319 2.19546065 5.69986566 2 10 C1.01 9.67 0.02 9.34 -1 9 C-0.67 6.03 -0.34 3.06 0 0 Z " fill="#3972AD" transform="translate(239,535)"/>
<path d="M0 0 C0.66 0.66 1.32 1.32 2 2 C-0.93828597 4.50298434 -3.17902761 5.46930939 -7 6 C-4.74259377 3.66475218 -2.7194239 1.81294927 0 0 Z " fill="#3787DC" transform="translate(391,217)"/>
<path d="M0 0 C3.63 0.33 7.26 0.66 11 1 C10.34 1.66 9.68 2.32 9 3 C5.4292371 2.62413022 3.28657463 1.64328732 0 0 Z " fill="#093777" transform="translate(438,772)"/>
<path d="M0 0 C5.53846154 0.61538462 5.53846154 0.61538462 7.875 2.5625 C8.431875 3.2740625 8.431875 3.2740625 9 4 C6.75 4.25 6.75 4.25 4 4 C1.6875 2 1.6875 2 0 0 Z " fill="#1F68B5" transform="translate(402,537)"/>
<path d="M0 0 C0.99 0.33 1.98 0.66 3 1 C3 2.98 3 4.96 3 7 C3.66 7.33 4.32 7.66 5 8 C4.01 8 3.02 8 2 8 C0.74335022 5.09399739 0 3.20395416 0 0 Z " fill="#2571C2" transform="translate(504,534)"/>
<path d="M0 0 C2 2 2 2 2.125 4.625 C2.08375 5.40875 2.0425 6.1925 2 7 C1.01 7 0.02 7 -1 7 C-0.67 4.69 -0.34 2.38 0 0 Z " fill="#438CDA" transform="translate(677,457)"/>
<path d="M0 0 C1.9453125 0.2421875 1.9453125 0.2421875 4.125 0.875 C4.84945312 1.07867187 5.57390625 1.28234375 6.3203125 1.4921875 C6.87460937 1.65976562 7.42890625 1.82734375 8 2 C4.34811918 3.07174763 1.73567172 2.76411467 -2 2 C-1.34 1.34 -0.68 0.68 0 0 Z " fill="#4397EF" transform="translate(845,358)"/>
<path d="M0 0 C2.49415272 0.99766109 3.78740335 1.68616685 5.3125 3.9375 C6 6 6 6 5 9 C3.19933758 6.0534615 1.49836105 3.11198065 0 0 Z " fill="#4598F0" transform="translate(698,294)"/>
<path d="M0 0 C2.97 0.33 5.94 0.66 9 1 C8.01 1.495 8.01 1.495 7 2 C6.67 2.66 6.34 3.32 6 4 C3.69 3.34 1.38 2.68 -1 2 C-0.67 1.34 -0.34 0.68 0 0 Z " fill="#5BA7F9" transform="translate(625,171)"/>
</svg>
